<svg width="72" height="33" viewBox="0 0 72 33" fill="none" xmlns="http://www.w3.org/2000/svg">
<path fill-rule="evenodd" clip-rule="evenodd" d="M19.1591 31.999H9.42568V13.4883L6.18662 16.0909L0.886719 9.51899L11.7472 0.87207H19.1591V31.999ZM9.60732 10.7764C9.79287 10.6279 9.9846 10.4609 10.1825 10.2754C10.2006 10.2585 10.2186 10.2416 10.2365 10.2248C10.2473 10.2146 10.2582 10.2045 10.269 10.1944C10.4364 10.0375 10.5993 9.88515 10.7577 9.7373L11.2587 9.23633C11.4071 9.08789 11.5123 8.97656 11.5741 8.90234C11.5681 9.10107 11.5606 9.31005 11.5517 9.52929C11.5422 9.76041 11.5311 10.0029 11.5185 10.2568C11.5165 10.3351 11.5144 10.4134 11.5121 10.4917C11.5116 10.5091 11.5111 10.5265 11.5106 10.544C11.4996 10.9113 11.4853 11.2787 11.4675 11.646C11.4659 11.6777 11.4644 11.7095 11.4628 11.7412C11.4621 11.7667 11.4615 11.7922 11.4608 11.8177C11.4491 12.2733 11.4374 12.7179 11.4257 13.1514V29.999H17.1591V2.87207H12.4462L3.70693 9.83008L6.49013 13.2812L9.60732 10.7764ZM43.207 12.002C42.8868 12.8506 42.4438 13.6326 41.8805 14.3407L41.8735 14.3495L41.8665 14.3582C41.4801 14.8329 41.0479 15.2676 40.5732 15.6633C41.1899 16.1277 41.7539 16.6425 42.2618 17.2084C42.9393 17.9506 43.4827 18.7876 43.8896 19.7111C44.3371 20.7266 44.5419 21.8228 44.5419 22.9668C44.5419 24.3631 44.2638 25.6875 43.6724 26.9033C43.0957 28.0886 42.2823 29.1016 41.2493 29.9279C40.2234 30.7486 39.0272 31.3514 37.6965 31.7612C36.3644 32.1753 34.9308 32.3701 33.413 32.3701C31.8048 32.3701 30.3107 32.1866 28.9533 31.7882C27.6145 31.3953 26.4132 30.8133 25.3972 30.007C24.3695 29.1914 23.5767 28.1764 23.0368 26.982L23.0321 26.9716L23.0275 26.9612C22.5061 25.7716 22.2655 24.4783 22.2655 23.1152C22.2655 21.9925 22.4303 20.9192 22.796 19.9218C23.1381 18.9889 23.6112 18.1327 24.2189 17.365C24.7261 16.7244 25.3059 16.1506 25.954 15.6439C25.5094 15.213 25.1055 14.7496 24.7447 14.2535L24.7297 14.2328L24.7152 14.2118C24.2267 13.5027 23.8388 12.7309 23.5478 11.904L23.5423 11.8884L23.5371 11.8727C23.2376 10.9741 23.1005 10.0212 23.1005 9.03223C23.1005 7.67527 23.3832 6.39058 24.0189 5.24291L24.0239 5.23389C24.6254 4.16087 25.4358 3.26005 26.4391 2.54613C27.418 1.83728 28.5245 1.3263 29.7345 0.997658C30.9173 0.676398 32.1457 0.519531 33.413 0.519531C34.7009 0.519531 35.9421 0.67539 37.1286 0.997658C38.3358 1.32554 39.4383 1.82999 40.4092 2.53028C41.4061 3.24936 42.2062 4.15668 42.7948 5.23565C43.4274 6.3955 43.7069 7.69533 43.7069 9.06934C43.7069 10.0886 43.5522 11.0703 43.2113 11.9905L43.207 12.002ZM27.6054 4.1709C26.8384 4.71517 26.2261 5.39551 25.7685 6.21191C25.3231 7.01595 25.1005 7.95605 25.1005 9.03223C25.1005 9.83626 25.2118 10.5723 25.4345 11.2402C25.6695 11.9082 25.9787 12.5205 26.3622 13.0771C26.7368 13.5922 27.1723 14.0685 27.6688 14.5061C27.6969 14.5309 27.7253 14.5555 27.7538 14.5801C28.2857 15.0254 28.8547 15.4398 29.4608 15.8232C28.7858 16.1491 28.1491 16.5243 27.5508 16.9487C27.5132 16.9754 27.4757 17.0022 27.4384 17.0293C26.8075 17.487 26.2571 18.0127 25.787 18.6064C25.317 19.2002 24.9459 19.8682 24.6737 20.6104C24.4016 21.3525 24.2655 22.1875 24.2655 23.1152C24.2655 24.2409 24.4634 25.2552 24.8593 26.1582C25.2675 27.0612 25.8612 27.8219 26.6405 28.4404C27.4198 29.0589 28.3785 29.5352 29.5165 29.8691C30.6545 30.2031 31.9533 30.3701 33.413 30.3701C34.7613 30.3701 35.9921 30.1969 37.1054 29.8506C38.231 29.5042 39.1959 29.0094 39.9999 28.3662C40.8039 27.723 41.4286 26.9437 41.8739 26.0283C42.3192 25.113 42.5419 24.0924 42.5419 22.9668C42.5419 22.0638 42.3811 21.2474 42.0595 20.5176C41.7379 19.7878 41.3111 19.1322 40.7792 18.5508C40.2473 17.957 39.635 17.4251 38.9423 16.9551C38.9028 16.9278 38.8633 16.9007 38.8238 16.8738C38.1809 16.4357 37.5215 16.036 36.8456 15.6748C37.5383 15.3285 38.1815 14.945 38.7753 14.5244C38.7892 14.5146 38.8031 14.5047 38.8169 14.4948C39.393 14.0815 39.8925 13.6151 40.3153 13.0957C40.7483 12.5514 41.0884 11.9515 41.3358 11.2959C41.5832 10.6279 41.7069 9.88574 41.7069 9.06934C41.7069 7.96842 41.4843 7.00977 41.039 6.19336C40.5936 5.37695 39.9937 4.69661 39.2392 4.15234C38.4846 3.60807 37.6063 3.19987 36.6044 2.92773C35.6024 2.6556 34.5386 2.51953 33.413 2.51953C32.3121 2.51953 31.2606 2.6556 30.2587 2.92773C29.2567 3.19987 28.3723 3.61426 27.6054 4.1709ZM31.706 19.0703C31.2606 19.3796 30.8772 19.7259 30.5556 20.1094C30.2463 20.4805 30.0051 20.8887 29.8319 21.334C29.6588 21.7793 29.5722 22.2617 29.5722 22.7812C29.5722 23.276 29.6526 23.7337 29.8134 24.1543C29.9742 24.5625 30.2092 24.915 30.5185 25.2119C30.8401 25.5088 31.2359 25.7438 31.706 25.917C32.176 26.0778 32.7203 26.1582 33.3388 26.1582C34.6376 26.1582 35.6086 25.8551 36.2519 25.249C36.8951 24.6305 37.2167 23.8203 37.2167 22.8184C37.2167 22.2988 37.1054 21.835 36.8827 21.4268C36.6724 21.0062 36.3941 20.6227 36.0477 20.2764C35.7138 19.9176 35.3303 19.5898 34.8974 19.293C34.4644 18.9961 34.0315 18.7116 33.5985 18.4395L33.1903 18.1797C32.6461 18.4518 32.1513 18.7487 31.706 19.0703ZM33.131 20.5161C33.0434 20.5741 32.9587 20.6326 32.8769 20.6917L32.8619 20.7025L32.8467 20.7131C32.5362 20.9287 32.2881 21.1564 32.0899 21.3922C31.9187 21.5982 31.7894 21.8184 31.6959 22.0589C31.6202 22.2536 31.5722 22.4879 31.5722 22.7812C31.5722 23.0509 31.6145 23.261 31.6778 23.4304C31.7322 23.5653 31.8017 23.6678 31.8895 23.7554C31.9896 23.8442 32.1404 23.9429 32.3745 24.0317C32.5915 24.1029 32.9031 24.1582 33.3388 24.1582C34.3481 24.1582 34.7381 23.9234 34.874 23.7993C35.0709 23.6066 35.2167 23.3424 35.2167 22.8184C35.2167 22.5935 35.1712 22.4657 35.1269 22.3845L35.1098 22.3531L35.0939 22.3212C34.9837 22.1008 34.8343 21.8913 34.6335 21.6906L34.6083 21.6653L34.584 21.6392C34.3568 21.3953 34.0867 21.1621 33.7663 20.9424C33.5543 20.797 33.3425 20.6549 33.131 20.5161ZM35.4169 11.834C35.1571 12.1309 34.8541 12.3968 34.5077 12.6318C34.1614 12.8669 33.7964 13.0833 33.413 13.2812C33.0172 13.0586 32.6399 12.8359 32.2811 12.6133C31.9348 12.3783 31.6255 12.1185 31.3534 11.834C31.0936 11.5371 30.8834 11.2031 30.7226 10.832C30.5741 10.4486 30.4999 9.99707 30.4999 9.47754C30.4999 9.0446 30.5741 8.65495 30.7226 8.30859C30.871 7.96224 31.0689 7.67155 31.3163 7.43652C31.5761 7.2015 31.8791 7.02214 32.2255 6.89844C32.5842 6.77474 32.9677 6.71289 33.3759 6.71289C33.7964 6.71289 34.1861 6.77474 34.5448 6.89844C34.9035 7.02214 35.2128 7.2015 35.4726 7.43652C35.7323 7.67155 35.9364 7.96224 36.0849 8.30859C36.2333 8.65495 36.3075 9.0446 36.3075 9.47754C36.3075 9.97233 36.2271 10.4115 36.0663 10.7949C35.9055 11.1784 35.689 11.5247 35.4169 11.834ZM32.8882 8.78555C32.795 8.81992 32.7296 8.85972 32.6786 8.90189C32.648 8.93476 32.6055 8.99222 32.5608 9.09643C32.5338 9.15948 32.4999 9.27539 32.4999 9.47754C32.4999 9.78075 32.5397 9.97017 32.5763 10.0786C32.6473 10.2328 32.7324 10.3666 32.8318 10.4856C32.9857 10.642 33.1648 10.793 33.3731 10.9371C33.3853 10.9446 33.3975 10.9521 33.4098 10.9597C33.6119 10.8197 33.7766 10.6714 33.9117 10.517L33.9155 10.5127C34.043 10.3678 34.1442 10.2069 34.2219 10.0215C34.2625 9.9248 34.3075 9.75625 34.3075 9.47754C34.3075 9.27539 34.2736 9.15948 34.2466 9.09643C34.2029 8.99451 34.161 8.94701 34.1307 8.91959C34.0872 8.88022 34.0179 8.83231 33.8928 8.78918C33.7653 8.74521 33.5984 8.71289 33.3759 8.71289C33.1781 8.71289 33.0197 8.74153 32.8882 8.78555ZM50.0976 21.7568V13.6934H56.9071V6.84668H64.9706V13.6934H71.7616V21.7568H64.9706V28.5107H56.9071V21.7568H50.0976ZM58.9071 19.7568V26.5107H62.9706V19.7568H69.7616V15.6934H62.9706V8.84668H58.9071V15.6934H52.0976V19.7568H58.9071Z" fill="#BAC1C2"/>
</svg>
