<svg width="36" height="37" viewBox="0 0 36 37" fill="none" xmlns="http://www.w3.org/2000/svg">
<path d="M30 18.8965C28.4908 22.6091 26.3778 31.2068 30 35.8965" stroke="#1A2F34" stroke-width="2" stroke-linecap="round"/>
<path d="M4 18.8965C5.50925 22.6091 7.62219 31.2068 4 35.8965" stroke="#1A2F34" stroke-width="2" stroke-linecap="round"/>
<path d="M12 19.8965C12.7546 22.954 13.8111 30.0344 12 33.8965" stroke="#1A2F34" stroke-width="2" stroke-linecap="round"/>
<path d="M22 19.8965C21.2454 22.954 20.1889 30.0344 22 33.8965" stroke="#1A2F34" stroke-width="2" stroke-linecap="round"/>
<path d="M6.52618 1.61729C6.35831 2.53853 5.69583 4.60702 4.38889 5.51107C2.75522 6.64112 -1.37204 12.4974 3.63025 17.5087C7.9853 21.8716 15.7218 19.7121 17.8607 11.8923" stroke="#1A2F34" stroke-width="2" stroke-linecap="round"/>
<path d="M28.968 1.61729C29.1358 2.53853 29.7983 4.60702 31.1052 5.51107C32.7389 6.64112 36.8662 12.4974 31.8639 17.5087C27.5088 21.8716 19.7723 19.7121 17.6335 11.8923" stroke="#1A2F34" stroke-width="2" stroke-linecap="round"/>
</svg>
