<svg width="22" height="41" viewBox="0 0 22 41" fill="none" xmlns="http://www.w3.org/2000/svg">
<rect x="1" y="15" width="4" height="25" rx="2" stroke="#1A2F34" stroke-width="2"/>
<rect x="17" y="15" width="4" height="25" rx="2" stroke="#1A2F34" stroke-width="2"/>
<rect x="5" y="25" width="12" height="6" stroke="#1A2F34" stroke-width="2"/>
<rect width="4" height="2" transform="matrix(-4.37114e-08 -1 -1 4.37114e-08 20 15)" fill="#1A2F34"/>
<rect width="4" height="2" transform="matrix(-4.37114e-08 -1 -1 4.37114e-08 4 15)" fill="#1A2F34"/>
<rect x="1" y="1" width="20" height="11" rx="5.5" stroke="#1A2F34" stroke-width="2"/>
<path d="M11 18C12.1046 18 13 18.8954 13 20L13 25L9 25L9 20C9 18.8954 9.89543 18 11 18V18Z" stroke="#1A2F34" stroke-width="2"/>
</svg>
