<svg width="16" height="40" viewBox="0 0 16 40" fill="none" xmlns="http://www.w3.org/2000/svg">
<path fill-rule="evenodd" clip-rule="evenodd" d="M12.3142 22.7427C13.0322 22.2241 14 20.968 14 17.439C14 13.5436 12.8449 9.48512 11.3311 6.41419C10.5747 4.87976 9.76762 3.67157 9.04214 2.88109C8.45704 2.24358 8.10342 2.06717 8 2.01847C7.89658 2.06717 7.54296 2.24358 6.95786 2.88109C6.23238 3.67157 5.42527 4.87976 4.66889 6.41419C3.15511 9.48512 2 13.5436 2 17.439C2 21.2673 3.03869 22.4335 3.74562 22.8785C5.09136 23.7254 7.2 25.3953 7.2 28.0534V31.9819C7.2 34.5445 5.3149 36.3507 3.37446 37.0513C3.26085 37.0923 3.15684 37.133 3.06191 37.173C3.15447 37.212 3.25569 37.2517 3.36603 37.2917C4.50716 37.7053 6.21596 38 8.2 38C10.184 38 11.8928 37.7053 13.034 37.2917C13.1443 37.2517 13.2455 37.212 13.3381 37.173C13.2432 37.133 13.1392 37.0923 13.0255 37.0513C11.0851 36.3507 9.2 34.5445 9.2 31.9819V27.7856C9.2 25.2805 11.0986 23.6207 12.3142 22.7427ZM14.1366 37.6394C14.1365 37.6394 14.1352 37.6379 14.1328 37.6351C14.1355 37.6379 14.1367 37.6394 14.1366 37.6394ZM14.1329 36.7109C14.1352 36.7081 14.1365 36.7068 14.1366 36.7068C14.1366 36.7068 14.1355 36.7081 14.1329 36.7109ZM2.26343 36.7068C2.26351 36.7068 2.26479 36.7081 2.26705 36.7109C2.26448 36.7081 2.26335 36.7068 2.26343 36.7068ZM2.26715 37.6351C2.26482 37.638 2.26349 37.6394 2.26341 37.6394C2.26333 37.6394 2.2645 37.6379 2.26715 37.6351ZM13.4853 24.364C14.9237 23.325 16 21.3157 16 17.439C16 8.93342 11 0 8 0C5 0 0 8.93342 0 17.439C0 21.5914 1.1394 23.6013 2.68031 24.5711C3.96859 25.3819 5.2 26.5312 5.2 28.0534V31.9819C5.2 33.4657 4.09085 34.6662 2.69526 35.1701C1.27746 35.682 0.4 36.3904 0.4 37.1731C0.4 38.7344 3.89219 40 8.2 40C12.5078 40 16 38.7344 16 37.1731C16 36.3904 15.1225 35.682 13.7047 35.1701C12.3092 34.6662 11.2 33.4657 11.2 31.9819V27.7856C11.2 26.3424 12.3153 25.2091 13.4853 24.364Z" fill="#1A2F34"/>
</svg>
