<svg width="120" height="165" viewBox="0 0 120 165" fill="none" xmlns="http://www.w3.org/2000/svg">
<path d="M65 71.936C65 85.0822 61.967 92.7628 57.7647 97.2823C57.2701 97.8142 56.7626 98.3524 56.2488 98.8974C53.9081 101.38 51.4356 104.003 49.4446 106.808C47.0035 110.249 45.2 114.076 45.2 118.453V127.947C45.2 136.918 52.1343 143.616 59.7252 147.538C63.3391 149.406 65 151.46 65 153.339C65 154.547 64.3278 155.827 62.8208 157.119C61.3174 158.407 59.0832 159.612 56.2354 160.645C50.5481 162.706 42.6249 164 33.825 164C25.0251 164 17.1019 162.706 11.4146 160.645C8.56676 159.612 6.33259 158.407 4.82915 157.119C3.32223 155.827 2.65 154.547 2.65 153.339C2.65 151.46 4.31093 149.406 7.9248 147.538C15.5157 143.616 22.45 136.918 22.45 127.947V119.836C22.45 115.215 20.4359 111.267 17.7284 107.757C15.6032 105.001 12.985 102.439 10.4975 100.004C9.83614 99.3569 9.18399 98.7186 8.55281 98.0881C4.15437 93.6946 1 85.8992 1 71.936C1 54.5719 6.10881 36.7385 12.7563 23.253C16.0798 16.5108 19.7685 10.8952 23.3598 6.98226C27.0006 3.01535 30.3549 1 33 1C35.6451 1 38.9994 3.01535 42.6402 6.98226C46.2315 10.8952 49.9202 16.5108 53.2437 23.253C59.8912 36.7385 65 54.5719 65 71.936Z" stroke="#1A2F34" stroke-width="2"/>
<rect x="84" y="69" width="35" height="87" rx="1" stroke="#1A2F34" stroke-width="2"/>
<circle cx="101" cy="89" r="7" stroke="#1A2F34" stroke-width="2"/>
</svg>
