<svg width="32" height="165" viewBox="0 0 32 165" fill="none" xmlns="http://www.w3.org/2000/svg">
<path d="M19.7844 133.518L19.6003 134.406L20.4662 134.676C26.5704 136.577 31 142.272 31 149C31 157.284 24.2843 164 16 164C7.71573 164 1 157.284 1 149C1 142.595 5.01463 137.126 10.6682 134.975L11.5159 134.653L11.2775 133.777C11.1694 133.381 11.1156 132.96 11.1256 132.524L11.1421 131.805C11.2078 128.933 9.45551 126.525 7.51092 124.846C4.74676 122.461 3 118.935 3 115C3 111.275 4.56478 107.918 7.07576 105.547C9.43835 103.315 11.8627 100.357 11.946 96.7173L11.964 95.9303C12.0439 92.4342 9.845 89.4421 8.0169 87.0236C6.75057 85.3483 6 83.2633 6 81C6 78.573 6.86333 76.3499 8.30079 74.6177C10.2369 72.2845 12.5709 69.3952 12.6511 65.8988L12.6737 64.9144C12.7404 62.0045 11.1662 59.4354 9.82746 57.2505L9.75751 57.1363C9.53772 56.7775 9.32335 56.4274 9.11677 56.0797C8.40753 54.8859 8 53.492 8 52C8 50.3771 8.48212 48.8701 9.31065 47.6105C9.53283 47.2727 9.7629 46.933 9.99878 46.5847C10.0237 46.5478 10.0488 46.5109 10.0739 46.4738C11.5117 44.3516 13.2023 41.8563 13.2688 38.9455L13.2978 37.6791C13.3494 35.4201 12.3533 33.3578 11.4856 31.5613L11.4388 31.4644C11.0523 30.6638 10.6886 29.9092 10.3978 29.1536C10.1412 28.4866 10 27.761 10 27C10 26.1425 10.1792 25.3295 10.5014 24.5943C10.8265 23.8523 11.2245 23.1145 11.6474 22.3319C11.6644 22.3004 11.6815 22.2688 11.6986 22.2371C12.6481 20.4806 13.738 18.4643 13.7896 16.2039L13.8099 15.3163C13.8549 13.3466 13.0511 11.507 12.3509 9.90461C12.3375 9.87396 12.3241 9.8434 12.3108 9.81293C11.7692 8.57283 11.2873 7.45815 11.077 6.33451C11.0265 6.06482 11 5.78597 11 5.5C11 3.01518 13.0152 1 15.5 1C17.9848 1 20 3.01518 20 5.5C20 5.84607 19.9611 6.18184 19.888 6.50363C19.6548 7.52854 19.2032 8.54557 18.6994 9.67099C18.6856 9.70167 18.6718 9.73244 18.658 9.76331C17.9535 11.336 17.1407 13.1504 17.1855 15.1051C17.2437 17.6482 18.6432 19.8572 19.8511 21.7637C19.8738 21.7996 19.8965 21.8354 19.9191 21.8711C20.4393 22.6926 20.9288 23.4667 21.3322 24.2459C21.7586 25.0697 22 26.0053 22 27C22 28.0104 21.7511 28.9596 21.3123 29.7926C20.9869 30.4101 20.614 31.0297 20.2208 31.6823C20.1983 31.7197 20.1757 31.7572 20.153 31.7948C19.0084 33.6939 17.6619 35.9278 17.72 38.4579C17.758 40.1151 18.3551 41.5943 19.1435 42.911C19.9193 44.2068 20.919 45.4057 21.8251 46.4924L21.8491 46.5212L21.8516 46.5241C21.9547 46.6478 22.0566 46.77 22.1576 46.8917C23.3087 48.2777 24 50.0568 24 52C24 53.7953 23.4099 55.4498 22.4126 56.784C22.3 56.9345 22.1862 57.086 22.0708 57.2395L22.0483 57.2694C21.1962 58.4029 20.2581 59.6507 19.5473 60.9835C18.8251 62.3378 18.3011 63.8433 18.3391 65.4995C18.419 68.9901 20.896 71.7728 23.0403 73.8985C24.8692 75.7116 26 78.2227 26 81C26 83.5961 25.0117 85.9593 23.3892 87.7376C21.3366 89.9874 18.9668 92.9076 19.0475 96.428C19.1297 100.014 21.6364 102.855 24.1284 104.854C27.1003 107.238 29 110.896 29 115C29 119.28 26.9332 123.076 23.7393 125.446C21.669 126.983 19.8015 129.356 19.8677 132.244L19.8741 132.524C19.882 132.867 19.8505 133.199 19.7844 133.518ZM16 160C22.0751 160 27 155.075 27 149C27 142.925 22.0751 138 16 138C9.92487 138 5 142.925 5 149C5 155.075 9.92487 160 16 160Z" stroke="#1A2F34" stroke-width="2"/>
</svg>
