<svg width="69" height="144" viewBox="0 0 69 144" fill="none" xmlns="http://www.w3.org/2000/svg">
<path d="M67.5714 55.7741C67.5714 64.4977 65.9257 70.3098 63.4548 74.2617C60.9953 78.1955 57.6576 80.3832 54.07 81.7505C49.7563 83.3945 46.2163 87.1936 46.2163 92.0534V114.287C46.2163 119.263 49.8842 123.275 54.5037 124.616C58.0469 125.644 60.8817 126.931 62.8078 128.352C64.7511 129.787 65.6122 131.233 65.6122 132.577C65.6122 133.752 64.9584 135.001 63.4847 136.264C62.0145 137.524 59.8284 138.704 57.04 139.714C51.4715 141.732 43.7125 143 35.0939 143C26.4753 143 18.7163 141.732 13.1478 139.714C10.3594 138.704 8.17327 137.524 6.70306 136.264C5.22936 135.001 4.57551 133.752 4.57551 132.577C4.57551 131.233 5.43666 129.787 7.37992 128.352C9.30604 126.931 12.1409 125.644 15.6841 124.616C20.3035 123.275 23.9714 119.263 23.9714 114.287V92.9471C23.9714 87.8199 20.0653 83.9146 15.3984 82.5052C11.5333 81.338 7.98177 79.2933 5.37218 75.303C2.74588 71.2871 1 65.1887 1 55.7741C1 29.7662 21.0451 11.2306 30.3404 4.04677C32.7007 2.22259 35.8707 2.22258 38.231 4.04676C47.5263 11.2306 67.5714 29.7662 67.5714 55.7741Z" stroke="#1A2F34" stroke-width="2"/>
</svg>
