<svg width="59" height="24" viewBox="0 0 59 24" fill="none" xmlns="http://www.w3.org/2000/svg">
<path d="M10.6436 3.0942C9.96092 3.90485 8.86858 4.54424 7.77624 4.4529C7.6397 3.3568 8.17449 2.1922 8.80031 1.47288C9.48302 0.639391 10.6778 0.0456708 11.6449 0C11.7587 1.14177 11.315 2.2607 10.6436 3.0942ZM11.6336 4.66984C10.0519 4.5785 8.6979 5.57184 7.94692 5.57184C7.18456 5.57184 6.03532 4.71551 4.78369 4.73834C3.15656 4.76118 1.64321 5.68601 0.81258 7.1589C-0.894199 10.1047 0.368818 14.4662 2.0187 16.8639C2.82658 18.0514 3.79375 19.353 5.06815 19.3073C6.27427 19.2617 6.75217 18.5195 8.20862 18.5195C9.67645 18.5195 10.0975 19.3073 11.3719 19.2845C12.6918 19.2617 13.5224 18.0971 14.3303 16.9096C15.2519 15.5623 15.6274 14.2493 15.6502 14.1808C15.6274 14.1579 13.1014 13.1874 13.0786 10.2645C13.0559 7.82112 15.0699 6.65652 15.1609 6.58801C14.0231 4.89819 12.248 4.71551 11.6336 4.66984ZM20.7705 1.35871V19.1589H23.5241V13.0733H27.3359C30.8178 13.0733 33.2641 10.6755 33.2641 7.20457C33.2641 3.73359 30.8633 1.35871 27.427 1.35871H20.7705ZM23.5241 3.68792H26.6987C29.0882 3.68792 30.4536 4.9667 30.4536 7.21598C30.4536 9.46527 29.0882 10.7555 26.6874 10.7555H23.5241V3.68792ZM38.2935 19.2959C40.023 19.2959 41.6274 18.4167 42.3556 17.0238H42.4125V19.1589H44.9613V10.2988C44.9613 7.72978 42.9131 6.07421 39.7613 6.07421C36.837 6.07421 34.6751 7.75262 34.5954 10.059H37.076C37.2808 8.96289 38.2935 8.24358 39.6816 8.24358C41.3657 8.24358 42.3101 9.0314 42.3101 10.4814V11.4634L38.8738 11.6689C35.6764 11.863 33.9469 13.176 33.9469 15.4596C33.9469 17.7659 35.7333 19.2959 38.2935 19.2959ZM39.0331 17.1836C37.5652 17.1836 36.6322 16.4757 36.6322 15.3911C36.6322 14.2721 37.5311 13.6213 39.2493 13.5186L42.3101 13.3245V14.3292C42.3101 15.9962 40.8991 17.1836 39.0331 17.1836ZM48.3635 24C51.0488 24 52.3118 22.9724 53.4155 19.8554L58.2514 6.24548H55.4523L52.2094 16.7612H52.1525L48.9096 6.24548H46.0309L50.6961 19.2046L50.4457 19.9924C50.0247 21.3283 49.342 21.8421 48.1245 21.8421C47.9083 21.8421 47.4873 21.8192 47.3166 21.7964V23.9315C47.4759 23.9772 48.1586 24 48.3635 24Z" fill="black"/>
</svg>
