<svg width="26" height="41" viewBox="0 0 26 41" fill="none" xmlns="http://www.w3.org/2000/svg">
<path d="M5.44141 23.5C5.44141 24.8807 4.32212 26 2.94141 26C1.56069 26 0.441406 24.8807 0.441406 23.5C0.441406 22.1193 1.56069 21 2.94141 21C4.32212 21 5.44141 22.1193 5.44141 23.5Z" fill="#1A2F34"/>
<path fill-rule="evenodd" clip-rule="evenodd" d="M21.7825 10.703C22.8737 9.62463 23.4414 8.50033 23.4414 7.5C23.4414 4.46199 20.9794 2 17.9414 2C14.9034 2 12.4414 4.46199 12.4414 7.5C12.4414 8.50033 13.0091 9.62463 14.1003 10.703C15.7536 12.3369 17.3759 14.8206 17.0398 17.7552L16.7284 20.4738C16.4608 22.8105 14.9552 24.6001 13.8567 25.8169C12.9755 26.7931 12.4414 28.0813 12.4414 29.5C12.4414 32.538 14.9034 35 17.9414 35C20.9794 35 23.4414 32.538 23.4414 29.5C23.4414 28.0813 22.9073 26.7931 22.0261 25.8169C20.9277 24.6001 19.4221 22.8105 19.1544 20.4738L18.843 17.7552C18.5069 14.8206 20.1292 12.3369 21.7825 10.703ZM23.1883 12.1256C21.7235 13.5732 20.5957 15.4816 20.83 17.5277L21.1414 20.2462C21.3292 21.8853 22.4052 23.2521 23.5107 24.4768C24.7108 25.8062 25.4414 27.5673 25.4414 29.5C25.4414 33.6426 22.084 37 17.9414 37C13.7988 37 10.4414 33.6426 10.4414 29.5C10.4414 27.5673 11.172 25.8062 12.3721 24.4768C13.4776 23.2521 14.5536 21.8853 14.7414 20.2462L15.0528 17.5277C15.2871 15.4816 14.1593 13.5732 12.6945 12.1256C11.4053 10.8515 10.4414 9.2458 10.4414 7.5C10.4414 3.35742 13.7988 0 17.9414 0C22.084 0 25.4414 3.35742 25.4414 7.5C25.4414 9.2458 24.4775 10.8515 23.1883 12.1256Z" fill="#1A2F34"/>
<path fill-rule="evenodd" clip-rule="evenodd" d="M2.11392 30.3354C2.50059 32.6556 3.9358 35.2645 7.40968 37.1175C9.47277 38.218 11.8528 38.7388 13.791 38.5141C15.7002 38.2927 17.0287 37.3916 17.4734 35.7398L19.4047 36.2598C18.6827 38.9414 16.4674 40.2171 14.0213 40.5008C11.6043 40.7811 8.8176 40.1353 6.46839 38.8821C2.44347 36.7352 0.629403 33.594 0.141128 30.6642C-0.100407 29.2149 -0.0160075 27.8277 0.273473 26.6515C0.558269 25.4943 1.06191 24.4632 1.73168 23.793L3.1464 25.2067C2.81688 25.5364 2.44603 26.1928 2.21552 27.1294C1.9897 28.047 1.91798 29.1597 2.11392 30.3354Z" fill="#1A2F34"/>
</svg>
