<svg width="28" height="29" viewBox="0 0 28 29" fill="none" xmlns="http://www.w3.org/2000/svg">
<path fill-rule="evenodd" clip-rule="evenodd" d="M14.4476 0.105882L26.4474 6.10579C26.5928 6.17848 26.7128 6.28181 26.8033 6.40403C27.4892 6.70672 28 7.38651 28 8.23598V20.7638C28 21.5214 27.572 22.2139 26.8944 22.5527L14.8944 28.5527C14.3314 28.8342 13.6686 28.8342 13.1056 28.5527L1.10557 22.5527C0.428005 22.2139 0 21.5214 0 20.7638V8.23598C0 7.38651 0.510764 6.70672 1.19667 6.40403C1.28725 6.28181 1.40719 6.17848 1.55257 6.10579L13.5524 0.105882L13.5526 0.105792C13.6965 0.0338499 13.8494 -0.000149795 14 4.97313e-07C14.1506 -0.000149989 14.3035 0.0338497 14.4474 0.105792L14.4476 0.105882ZM14 2.11814L4.11823 7.05903L13.1056 11.5527C13.6686 11.8342 14.3314 11.8342 14.8944 11.5527L23.8818 7.05903L14 2.11814ZM12.2111 13.3416L2 8.23598V20.7638L14 26.7638L26 20.7638V8.23598L15.7889 13.3416C14.6627 13.9046 13.3373 13.9046 12.2111 13.3416Z" fill="#1A2F34"/>
</svg>
