<svg width="42" height="27" viewBox="0 0 42 27" fill="none" xmlns="http://www.w3.org/2000/svg">
<path d="M38.7108 12.347C39.4673 17.3169 36.3512 22.173 31.9071 23.2525L32.3792 25.1959C37.9341 23.8467 41.5841 17.9328 40.688 12.046L38.7108 12.347ZM31.9071 23.2525C27.5446 24.3121 23.3319 21.3623 22.5832 16.4436L20.6059 16.7446C21.5098 22.6826 26.7426 26.565 32.3792 25.1959L31.9071 23.2525ZM22.5832 16.4436C22.39 15.1749 22.5686 14.6238 22.7453 14.3752C22.9097 14.1441 23.2364 13.9448 23.9988 13.8299C24.7729 13.7131 25.7006 13.7183 26.897 13.6758C28.0471 13.6349 29.36 13.5482 30.7103 13.2202L30.2383 11.2767C29.0889 11.5559 27.9386 11.6375 26.8259 11.6771C25.7596 11.715 24.6249 11.7129 23.7007 11.8522C22.7648 11.9933 21.7573 12.3135 21.1154 13.2163C20.4858 14.1016 20.3859 15.299 20.6059 16.7446L22.5832 16.4436ZM30.7103 13.2202C32.0598 12.8925 33.2824 12.3636 34.3338 11.8698C35.4296 11.3552 36.2555 10.9239 36.9754 10.6776C37.711 10.426 37.9581 10.5089 38.055 10.574C38.1942 10.6675 38.5111 11.0354 38.7108 12.347L40.688 12.046C40.4745 10.6433 40.0566 9.50892 39.1699 8.91353C38.2408 8.2897 37.1706 8.49713 36.3282 8.78528C35.4701 9.07878 34.4571 9.60236 33.4836 10.0595C32.4657 10.5376 31.3886 10.9973 30.2383 11.2767L30.7103 13.2202Z" fill="#1A2F34"/>
<path d="M4.07047 11.9583C3.31395 16.9282 6.43003 21.7843 10.8742 22.8638L10.4021 24.8073C4.84718 23.458 1.19715 17.5442 2.09324 11.6573L4.07047 11.9583ZM10.8742 22.8638C15.2366 23.9234 19.4494 20.9736 20.1981 16.0549L22.1753 16.3559C21.2714 22.2939 16.0386 26.1764 10.4021 24.8073L10.8742 22.8638ZM20.1981 16.0549C20.3912 14.7863 20.2127 14.2352 20.0359 13.9866C19.8715 13.7554 19.5448 13.5561 18.7824 13.4412C18.0084 13.3245 17.0806 13.3297 15.8842 13.2871C14.7342 13.2462 13.4213 13.1596 12.0709 12.8316L12.543 10.8881C13.6924 11.1673 14.8426 11.2488 15.9553 11.2884C17.0217 11.3263 18.1564 11.3242 19.0806 11.4635C20.0165 11.6046 21.0239 11.9248 21.6659 12.8276C22.2954 13.7129 22.3954 14.9103 22.1753 16.3559L20.1981 16.0549ZM12.0709 12.8316C10.7215 12.5038 9.49882 11.9749 8.44748 11.4812C7.35168 10.9666 6.52576 10.5352 5.80582 10.289C5.07022 10.0374 4.82318 10.1202 4.72626 10.1853C4.587 10.2788 4.27011 10.6468 4.07047 11.9583L2.09324 11.6573C2.30676 10.2547 2.72464 9.12025 3.61138 8.52486C4.54046 7.90103 5.61063 8.10846 6.45308 8.39661C7.31118 8.69011 8.32414 9.21369 9.29764 9.67086C10.3156 10.1489 11.3927 10.6087 12.543 10.8881L12.0709 12.8316Z" fill="#1A2F34"/>
<rect width="2" height="8.72754" rx="1" transform="matrix(0.999682 -0.025212 0.0952975 0.995449 34.9473 1.05762)" fill="#1A2F34"/>
<rect width="2" height="8.731" rx="1" transform="matrix(-0.993692 -0.112144 -0.181594 0.983373 8.55078 1.19727)" fill="#1A2F34"/>
</svg>
