<svg width="132" height="134" viewBox="0 0 132 134" fill="none" xmlns="http://www.w3.org/2000/svg">
<path d="M49 19.5C49 20.4283 48.5087 21.4283 47.3671 22.454C46.2258 23.4793 44.5181 24.4484 42.3225 25.2827C37.9382 26.9487 31.8141 28 25 28C18.1859 28 12.0618 26.9487 7.67755 25.2827C5.48194 24.4484 3.77417 23.4793 2.63294 22.454C1.49134 21.4283 1 20.4283 1 19.5C1 18.5717 1.49134 17.5717 2.63294 16.546C3.77417 15.5207 5.48194 14.5516 7.67755 13.7173C12.0618 12.0513 18.1859 11 25 11C31.8141 11 37.9382 12.0513 42.3225 13.7173C44.5181 14.5516 46.2258 15.5207 47.3671 16.546C48.5087 17.5717 49 18.5717 49 19.5Z" stroke="#1A2F34" stroke-width="2"/>
<path d="M49 121C49 125.971 38.2548 130 25 130C11.7452 130 1 125.971 1 121" stroke="#1A2F34" stroke-width="2"/>
<rect x="47.9795" y="20.4121" width="2" height="101.033" fill="#1A2F34"/>
<rect y="20.4121" width="2" height="101.033" fill="#1A2F34"/>
<path d="M25.3421 16C25.1052 7.69961 24.1577 0.261856 27 1.05869" stroke="#1A2F34" stroke-width="2"/>
<path d="M41 42.0441C41 47.039 39.8807 48 38.5 48C37.1193 48 36 47.039 36 42.0441C36 37.0492 38.5 33 38.5 33C38.5 33 41 37.0492 41 42.0441Z" stroke="#1A2F34" stroke-width="2" stroke-linecap="round" stroke-linejoin="round"/>
<path d="M131 46.9573C131 47.959 130.278 49.1375 128.417 50.3886C126.591 51.6156 123.885 52.7598 120.45 53.7364C113.595 55.6858 104.066 56.9047 93.5 56.9047C82.934 56.9047 73.4053 55.6858 66.5499 53.7364C63.1153 52.7598 60.4086 51.6156 58.5834 50.3886C56.7225 49.1375 56 47.959 56 46.9573C56 45.9555 56.7225 44.777 58.5834 43.5259C60.4086 42.2989 63.1153 41.1547 66.5499 40.1781C73.4053 38.2287 82.934 37.0098 93.5 37.0098C104.066 37.0098 113.595 38.2287 120.45 40.1781C123.885 41.1547 126.591 42.2989 128.417 43.5259C130.278 44.777 131 45.9555 131 46.9573Z" stroke="#1A2F34" stroke-width="2"/>
<path d="M130.92 123C130.92 127.985 114.149 132.025 93.46 132.025C72.7714 132.025 56 127.985 56 123" stroke="#1A2F34" stroke-width="2"/>
<rect x="130" y="48" width="2" height="75" fill="#1A2F34"/>
<rect x="55" y="47.5996" width="2" height="75.9884" fill="#1A2F34"/>
<path d="M94.0268 44.2818C93.6621 38.0389 92.2028 32.4448 96.58 33.0441" stroke="#1A2F34" stroke-width="2"/>
<path d="M121.5 53.5C121.5 57.2568 119.976 60.4795 117.85 60.4795C115.724 60.4795 114 59.7568 114 56" stroke="#1A2F34" stroke-width="2" stroke-linecap="round" stroke-linejoin="round"/>
</svg>
