<svg width="162" height="113" viewBox="0 0 162 113" fill="none" xmlns="http://www.w3.org/2000/svg">
<path d="M150 25.5C150 28.6175 148.256 31.7185 144.81 34.6657C141.367 37.6099 136.327 40.3064 130.011 42.5908C117.388 47.1566 99.8833 50 80.5 50C61.1167 50 43.6121 47.1566 30.9891 42.5908C24.6734 40.3064 19.6329 37.6099 16.1902 34.6657C12.7438 31.7185 11 28.6175 11 25.5C11 22.3825 12.7438 19.2815 16.1902 16.3342C19.6329 13.3901 24.6734 10.6935 30.9891 8.40915C43.6121 3.84339 61.1167 1 80.5 1C99.8833 1 117.388 3.84339 130.011 8.40915C136.327 10.6935 141.367 13.3901 144.81 16.3342C148.256 19.2815 150 22.3825 150 25.5Z" stroke="#1A2F34" stroke-width="2"/>
<path d="M11 26V51.6312C11 71.7759 42.1162 88.1064 80.5 88.1064C118.884 88.1064 150 71.7759 150 51.6312V26" stroke="#1A2F34" stroke-width="2" stroke-linecap="round" stroke-linejoin="round"/>
<path d="M37.5 43.8184C49.3301 38.9224 64.265 36.0009 80.5 36.0009C96.735 36.0009 111.67 38.9224 123.5 43.8184" stroke="#1A2F34" stroke-width="2" stroke-linecap="round" stroke-linejoin="round"/>
<path d="M151 50C156.523 50 161 45.5228 161 40C161 34.4772 156.523 30 151 30" stroke="#1A2F34" stroke-width="2"/>
<path d="M11 30C5.47715 30 0.999999 34.4772 0.999999 40C1 45.5228 5.47715 50 11 50" stroke="#1A2F34" stroke-width="2"/>
<path d="M71 71C71 75.9706 75.0294 80 80 80C84.9706 80 89 75.9706 89 71" stroke="#1A2F34" stroke-width="2" stroke-linecap="round" stroke-linejoin="round"/>
<circle cx="80.5" cy="93.5" r="18.5" stroke="#1A2F34" stroke-width="2"/>
<path d="M112 68C112 69.4614 111.554 70.746 110.882 71.6426C110.21 72.539 109.357 73 108.5 73C107.643 73 106.79 72.539 106.118 71.6426C105.446 70.746 105 69.4614 105 68C105 66.5386 105.446 65.254 106.118 64.3574C106.79 63.461 107.643 63 108.5 63C109.357 63 110.21 63.461 110.882 64.3574C111.554 65.254 112 66.5386 112 68Z" stroke="#1A2F34" stroke-width="2"/>
<path d="M49 68C49 69.4614 49.4455 70.746 50.118 71.6426C50.7903 72.539 51.6427 73 52.5 73C53.3573 73 54.2097 72.539 54.882 71.6426C55.5545 70.746 56 69.4614 56 68C56 66.5386 55.5545 65.254 54.882 64.3574C54.2097 63.461 53.3573 63 52.5 63C51.6427 63 50.7903 63.461 50.118 64.3574C49.4455 65.254 49 66.5386 49 68Z" stroke="#1A2F34" stroke-width="2"/>
<path d="M134 59C134 61.4289 132.46 63 131 63C129.54 63 128 61.4289 128 59C128 56.5711 129.54 55 131 55C132.46 55 134 56.5711 134 59Z" stroke="#1A2F34" stroke-width="2"/>
<path d="M27 59C27 61.4289 28.5398 63 30 63C31.4602 63 33 61.4289 33 59C33 56.5711 31.4602 55 30 55C28.5398 55 27 56.5711 27 59Z" stroke="#1A2F34" stroke-width="2"/>
</svg>
