<svg width="140" height="142" viewBox="0 0 140 142" fill="none" xmlns="http://www.w3.org/2000/svg">
<ellipse cx="67.47" cy="104.205" rx="1.47" ry="2.205" fill="#1A2F34"/>
<path d="M131.5 32.4996C125.833 26.4996 105.6 20.1996 70 42.9996" stroke="#1A2F34" stroke-width="2" stroke-linecap="round"/>
<path d="M9 32.4996C14.6667 26.4996 34.9 20.1996 70.5 42.9996" stroke="#1A2F34" stroke-width="2" stroke-linecap="round"/>
<path d="M117.342 70.209C111.59 84.3592 103.537 117.128 117.342 135.002" stroke="#1A2F34" stroke-width="2" stroke-linecap="round"/>
<path d="M18.2474 68.209C23.9997 82.3592 32.0529 115.128 18.2474 133.002" stroke="#1A2F34" stroke-width="2" stroke-linecap="round"/>
<path d="M48.7385 87.0215C51.6146 98.6746 55.6412 125.661 48.7385 140.38" stroke="#1A2F34" stroke-width="2" stroke-linecap="round"/>
<path d="M44.0002 87.0215C46.8763 98.6746 50.9029 125.661 44.0002 140.38" stroke="#1A2F34" stroke-width="2" stroke-linecap="round"/>
<path d="M86.8524 87.0215C83.9762 98.6746 79.9496 125.661 86.8524 140.38M91.5 87.0215C88.6239 98.6746 84.5973 125.661 91.5 140.38" stroke="#1A2F34" stroke-width="2" stroke-linecap="round"/>
<path d="M26.8758 4.3527C26.236 7.86388 23.7111 15.7476 18.7299 19.1933C12.5034 23.5003 -3.22706 45.8206 15.8384 64.9204C32.4371 81.5489 61.9237 73.3183 70.0755 43.5143" stroke="#1A2F34" stroke-width="2" stroke-linecap="round"/>
<path d="M113.405 4.3527C114.045 7.86388 116.57 15.7476 121.551 19.1933C127.778 23.5003 143.508 45.8206 124.443 64.9204C107.844 81.5489 78.3576 73.3183 70.2057 43.5143" stroke="#1A2F34" stroke-width="2" stroke-linecap="round"/>
<path d="M117 135C106.746 132.081 85.5905 124.594 83 118" stroke="#1A2F34" stroke-width="2" stroke-linecap="round"/>
<path d="M68 135C63.4762 132.081 54.1429 124.594 53 118" stroke="#1A2F34" stroke-width="2" stroke-linecap="round"/>
<path d="M18 133C28.254 130.424 49.4095 123.818 52 118" stroke="#1A2F34" stroke-width="2" stroke-linecap="round"/>
<path d="M68 135C72.5238 132.081 81.8571 124.594 83 118" stroke="#1A2F34" stroke-width="2" stroke-linecap="round"/>
</svg>
