<svg width="119" height="178" viewBox="0 0 119 178" fill="none" xmlns="http://www.w3.org/2000/svg">
<path d="M73 41.5C73 29.0736 83.0736 19 95.5 19V19C107.926 19 118 29.0736 118 41.5V174C118 175.657 116.657 177 115 177H76C74.3431 177 73 175.657 73 174V41.5Z" stroke="#1A2F34" stroke-width="2"/>
<path d="M73 166C73 164.895 73.8954 164 75 164H116C117.105 164 118 164.895 118 166V175C118 176.105 117.105 177 116 177H75C73.8954 177 73 176.105 73 175V166Z" stroke="#1A2F34" stroke-width="2"/>
<path d="M47 125C47 137.016 44.3413 147.845 40.0927 155.634C35.8234 163.461 30.0899 168 24 168C17.9101 168 12.1766 163.461 7.90733 155.634C3.65874 147.845 1 137.016 1 125C1 112.984 3.65874 102.155 7.90733 94.3662C12.1766 86.5392 17.9101 82 24 82C30.0899 82 35.8234 86.5392 40.0927 94.3662C44.3413 102.155 47 112.984 47 125Z" stroke="#1A2F34" stroke-width="2"/>
<rect x="20" y="168" width="8" height="5" stroke="#1A2F34" stroke-width="2"/>
<rect x="20" y="76" width="8" height="6" stroke="#1A2F34" stroke-width="2"/>
<rect x="92" y="13" width="8" height="6" stroke="#1A2F34" stroke-width="2"/>
<path d="M95.6722 12.8494C96.8255 9.03751 95.5733 1.4137 81.3377 1.4137C63.5433 1.4137 24 -9.02759 24 75" stroke="#1A2F34" stroke-width="2"/>
</svg>
