<svg width="111" height="186" viewBox="0 0 111 186" fill="none" xmlns="http://www.w3.org/2000/svg">
<path d="M74.8601 62.7572L74.8216 62.7754L74.7849 62.7967C67.8188 66.8387 63.1498 75.7003 60.1136 84.8576C57.0586 94.0714 55.5716 103.85 55.1362 110.058L55.1337 110.093V110.128C55.1337 130.793 52.0038 149.458 46.9763 162.921C44.4612 169.655 41.4903 175.036 38.2421 178.715C34.9927 182.395 31.5518 184.283 28.0669 184.283C24.582 184.283 21.1411 182.395 17.8916 178.715C14.6434 175.036 11.6725 169.655 9.1574 162.921C4.1299 149.458 1 130.793 1 110.128C1 84.3664 5.86266 61.7512 13.173 48.4308L13.2032 48.3757L13.2263 48.3172C17.8783 36.5455 32.1384 23.133 51.7352 13.889C65.8863 7.21375 79.0578 2.35065 89.2638 1.23995C94.3642 0.684886 98.6211 1.07953 101.868 2.56252C105.067 4.02409 107.368 6.57883 108.541 10.5646C113.35 26.9174 102.939 49.5122 74.8601 62.7572Z" stroke="#1A2F34" stroke-width="2"/>
<path d="M62 9.2832C70.6792 11.2665 86.2738 24.2432 79.2184 60.2832" stroke="#1A2F34" stroke-width="2"/>
<path d="M26.401 80.3277C25.3663 86.4148 23.5553 91.7331 21.4956 95.4073C20.4635 97.2484 19.3965 98.6271 18.3759 99.4901C17.3505 100.357 16.4862 100.615 15.7895 100.496C15.0928 100.378 14.3621 99.8492 13.6809 98.692C13.0027 97.5403 12.4512 95.8864 12.0854 93.8077C11.3554 89.6593 11.4035 84.0413 12.4382 77.9542C13.4729 71.8671 15.2838 66.5488 17.3435 62.8746C18.3756 61.0334 19.4427 59.6548 20.4633 58.7918C21.4887 57.9247 22.353 57.6671 23.0497 57.7855C23.7464 57.9039 24.477 58.4327 25.1583 59.5898C25.8364 60.7416 26.388 62.3954 26.7538 64.4742C27.4837 68.6226 27.4357 74.2406 26.401 80.3277Z" stroke="#1A2F34" stroke-width="2"/>
<path d="M34.5181 45.4871C32.277 48.0165 29.163 48.341 27.5632 46.9236C25.9634 45.5062 25.9105 42.3758 28.1516 39.8463C30.3927 37.3168 33.5067 36.9923 35.1065 38.4097C36.7063 39.8272 36.7592 42.9576 34.5181 45.4871Z" stroke="#1A2F34" stroke-width="2"/>
<path d="M18.0371 117.371C18.0695 119.645 16.4747 121.309 14.714 121.334C12.9533 121.359 11.3115 119.741 11.2791 117.467C11.2466 115.193 12.8415 113.529 14.6022 113.504C16.3629 113.479 18.0046 115.097 18.0371 117.371Z" stroke="#1A2F34" stroke-width="2"/>
</svg>
