<svg width="25" height="42" viewBox="0 0 25 42" fill="none" xmlns="http://www.w3.org/2000/svg">
<path fill-rule="evenodd" clip-rule="evenodd" d="M9.89433 0.218727C10.9805 0.578236 11.8038 1.38051 12.2542 2.61472C12.6056 3.5776 12.6571 4.81354 12.6162 5.87313C12.5764 6.90222 12.4431 7.88814 12.3216 8.5395L12.8544 30.5178C13.2781 29.88 13.8614 29.0489 14.6279 28.4119C15.5436 27.6508 16.7714 27.1251 18.3152 27.4628C19.9935 27.8299 21.3471 28.4812 22.3763 29.525C23.4034 30.5665 24.0257 31.9159 24.3909 33.5334C24.7148 34.9679 24.4558 36.1028 23.8582 36.9209C23.2872 37.7024 22.4823 38.0905 21.8725 38.2125L21.7754 38.2319H15.2872C15.3095 38.2617 15.3313 38.2912 15.3526 38.3204C15.552 38.593 15.7191 38.8521 15.8416 39.0794C15.9024 39.1922 15.96 39.3117 16.005 39.4309C16.0412 39.5268 16.1063 39.7157 16.1063 39.9372C16.1063 40.4916 15.7373 40.8231 15.5559 40.9566C15.348 41.1098 15.1047 41.2156 14.8876 41.2929C14.4414 41.4519 13.8514 41.5778 13.1895 41.6776C11.8502 41.8794 10.0347 42 8.05314 42C6.07158 42 4.25613 41.8794 2.91681 41.6776C2.2549 41.5778 1.66493 41.4519 1.21867 41.2929C1.00161 41.2156 0.758316 41.1098 0.550339 40.9566C0.368999 40.8231 0 40.4916 0 39.9372C0 39.6907 0.0812279 39.4779 0.122942 39.3758C0.17722 39.2429 0.247533 39.1061 0.323835 38.9732C0.477654 38.7052 0.689923 38.394 0.946796 38.065C1.38914 37.4984 1.99333 36.8413 2.72373 36.2237L3.68245 11.6989C3.36058 11.4823 2.99396 11.1732 2.69004 10.7449C2.13028 9.95593 1.85891 8.86912 2.24889 7.49126C2.29209 7.33861 2.33458 7.18793 2.37662 7.03885L2.39868 6.96062C2.8504 5.35843 3.26641 3.88288 3.82824 2.75338C4.41585 1.57203 5.24852 0.593983 6.61309 0.249608C7.71466 -0.0283959 8.86616 -0.121574 9.89433 0.218727ZM9.2659 2.11743C8.74931 1.94645 8.02683 1.95553 7.10248 2.18881C6.5279 2.33381 6.071 2.73528 5.61894 3.6441C5.15023 4.5864 4.78082 5.88198 4.30156 7.58164C4.25956 7.73058 4.21681 7.88218 4.17329 8.03593C3.94188 8.85355 4.12487 9.31087 4.32119 9.58759C4.55257 9.9137 4.89876 10.1169 5.13878 10.2323L5.73019 10.5168L4.68642 37.2171L4.32055 37.5026C3.5694 38.0888 2.94984 38.7493 2.52325 39.2957C2.45718 39.3804 2.3967 39.461 2.34182 39.537C2.57816 39.5925 2.86939 39.6479 3.21482 39.6999C4.42824 39.8827 6.13936 40 8.05314 40C9.96693 40 11.678 39.8827 12.8915 39.6999C13.2369 39.6479 13.5281 39.5925 13.7645 39.537C13.7558 39.5251 13.7471 39.513 13.7382 39.5008C13.4162 39.0605 12.9395 38.5093 12.3467 37.9742L10.4166 36.2319H21.5573C21.7556 36.1726 22.039 36.0206 22.2433 35.741C22.4492 35.4592 22.6572 34.9355 22.44 33.9739C22.1289 32.5962 21.6401 31.6268 20.9522 30.9293C20.2665 30.2339 19.3012 29.7258 17.8878 29.4166C17.0878 29.2416 16.4717 29.4801 15.9063 29.95C15.2986 30.455 14.816 31.1749 14.3565 31.8726L14.3488 31.8843C14.2123 32.0916 14.0712 32.3057 13.9367 32.4917C13.8051 32.6736 13.6412 32.8835 13.4518 33.0518C13.1668 33.3051 12.8425 33.5161 12.476 33.6034C12.0727 33.6996 11.6645 33.6319 11.3315 33.3993L10.9166 33.1096L10.3169 8.3719L10.3379 8.26469C10.4472 7.70663 10.5801 6.76953 10.6177 5.79589C10.6564 4.79324 10.5877 3.88208 10.3754 3.3004C10.1168 2.59174 9.72446 2.2692 9.2659 2.11743ZM14.1338 40.137C14.1379 40.1479 14.1364 40.1462 14.1326 40.1339C14.1331 40.1351 14.1335 40.1362 14.1338 40.137ZM1.96844 40.1485C1.96816 40.1487 1.9696 40.1441 1.97363 40.134C1.97074 40.1434 1.96873 40.1484 1.96844 40.1485Z" fill="#1A2F34"/>
</svg>
