<svg width="67" height="180" viewBox="0 0 67 180" fill="none" xmlns="http://www.w3.org/2000/svg">
<path d="M9.94421 56.7317L10 56.5718V56.4024C10 54.7721 9.47505 53.2383 8.73136 51.8981C7.00145 48.7805 6 45.1666 6 41.2431V26.931C6 19.5129 9.73842 12.5942 15.9434 8.52889L21.9434 4.59786C29.2654 -0.199285 37.7346 -0.199285 45.0566 4.59786L51.0566 8.52889C57.2616 12.5942 61 19.5129 61 26.931V37.1052C61 40.9174 60.018 44.5583 58.257 47.7439C57.519 49.0791 57 50.6057 57 52.2272V52.3934L57.0538 52.5506L58.4838 56.7339C59.4496 59.559 59.6056 62.598 58.9343 65.5072L57.0256 73.7781L56.9732 74.0051L57.0266 74.232L59.1104 83.0883C59.6775 85.4985 59.6775 88.0074 59.1104 90.4176L57.0266 99.2739L57 99.3869V99.5029V158.004C57 161.042 59.4624 163.504 62.5 163.504C64.433 163.504 66 165.071 66 167.004V172.504C66 175.818 63.3137 178.504 60 178.504H6.99999C3.68629 178.504 1 175.818 1 172.504V167.004C1 165.071 2.567 163.504 4.5 163.504C7.53757 163.504 10 161.042 10 158.004V102.203V102.075L9.96735 101.95L8.09622 94.8083C7.39967 92.1497 7.39966 89.3565 8.09622 86.6979L9.96735 79.5563L10.0271 79.3283L9.97869 79.0975L7.94924 69.4239C7.35161 66.5751 7.54239 63.6174 8.50105 60.8691L9.94421 56.7317Z" stroke="black" stroke-width="2"/>
<path d="M56 50.5128C52.9653 51.347 47.0875 48.4107 44.0208 38C43.3819 44.173 34.15 57.7202 10 54.5169" stroke="black" stroke-width="2" stroke-linecap="round" stroke-linejoin="round"/>
<path d="M56 73.7768C52.9653 74.5619 47.0875 71.7983 44.0208 62C43.3819 67.8099 34.15 80.5602 10 77.5454" stroke="black" stroke-width="2" stroke-linecap="round" stroke-linejoin="round"/>
<path d="M56 98.7768C52.9653 99.5619 47.0875 96.7983 44.0208 87C43.3819 92.8099 34.15 105.56 10 102.545" stroke="black" stroke-width="2" stroke-linecap="round" stroke-linejoin="round"/>
</svg>
