<svg width="61" height="24" viewBox="0 0 61 24" fill="none" xmlns="http://www.w3.org/2000/svg">
<path d="M28.8502 11.7259V18.7608H26.6172V1.38789H32.5395C33.2464 1.37313 33.9493 1.49843 34.6075 1.75657C35.2657 2.01471 35.8663 2.40057 36.3745 2.89188C36.8878 3.35337 37.2964 3.91933 37.5727 4.55173C37.849 5.18413 37.9867 5.86831 37.9764 6.5583C37.9911 7.25198 37.8556 7.94064 37.5791 8.57707C37.3026 9.21349 36.8917 9.78265 36.3745 10.2455C35.3389 11.2325 34.0606 11.7255 32.5395 11.7246H28.8502V11.7259ZM28.8502 3.52675V9.59124H32.595C33.0055 9.60341 33.4141 9.5298 33.7946 9.37513C34.175 9.22046 34.519 8.98813 34.8044 8.69301C35.0884 8.41707 35.3141 8.08703 35.4683 7.72239C35.6224 7.35775 35.7019 6.96593 35.7019 6.57008C35.7019 6.17424 35.6224 5.78242 35.4683 5.41778C35.3141 5.05314 35.0884 4.7231 34.8044 4.44716C34.5225 4.14582 34.1798 3.9078 33.7989 3.74888C33.418 3.58996 33.0076 3.51377 32.595 3.52536H28.8502V3.52675Z" fill="#5F6368"/>
<path d="M43.1225 6.48633C44.773 6.48633 46.0758 6.92713 47.031 7.80873C47.9861 8.69034 48.4633 9.89908 48.4623 11.435V18.7609H46.3264V17.1113H46.2293C45.3047 18.4698 44.0749 19.149 42.54 19.149C41.2298 19.149 40.1336 18.7609 39.2515 17.9846C38.8282 17.6283 38.4897 17.1821 38.2608 16.6786C38.0319 16.175 37.9183 15.6267 37.9283 15.0737C37.9283 13.8437 38.3934 12.8655 39.3236 12.1391C40.2538 11.4128 41.4956 11.0487 43.049 11.0468C44.375 11.0468 45.467 11.2894 46.325 11.7746V11.2645C46.3276 10.8874 46.2461 10.5146 46.0866 10.1729C45.927 9.83129 45.6934 9.5294 45.4027 9.28916C44.8122 8.75671 44.0426 8.46618 43.2474 8.47548C42 8.47548 41.013 9.0013 40.2862 10.0529L38.3195 8.81509C39.4013 7.26258 41.0023 6.48633 43.1225 6.48633ZM40.2335 15.1222C40.232 15.4062 40.2984 15.6865 40.4272 15.9396C40.5561 16.1928 40.7436 16.4116 40.9741 16.5776C41.468 16.9659 42.081 17.1716 42.7092 17.1598C43.6515 17.1583 44.5548 16.7834 45.221 16.1174C45.9607 15.4216 46.3306 14.6051 46.3306 13.6681C45.6343 13.1136 44.6634 12.8364 43.4179 12.8364C42.5109 12.8364 41.7545 13.0549 41.1489 13.492C40.5372 13.9356 40.2335 14.4748 40.2335 15.1222Z" fill="#5F6368"/>
<path d="M60.7236 6.87305L53.2672 23.9992H50.9621L53.7291 18.0068L48.8262 6.87305H51.2534L54.7971 15.4119H54.8456L58.2922 6.87305H60.7236Z" fill="#5F6368"/>
<path d="M19.8278 10.209C19.8286 9.52892 19.7711 8.84998 19.6558 8.17969H10.2383V12.0235H15.6322C15.5218 12.6375 15.2882 13.2227 14.9454 13.7439C14.6026 14.2652 14.1578 14.7117 13.6377 15.0565V17.5516H16.8569C18.7418 15.8147 19.8278 13.2461 19.8278 10.209Z" fill="#4285F4"/>
<path d="M10.2368 19.9609C12.9317 19.9609 15.2007 19.0765 16.8554 17.5517L13.6362 15.0566C12.7403 15.6638 11.5863 16.0103 10.2368 16.0103C7.63208 16.0103 5.42125 14.2554 4.63068 11.8906H1.31445V14.462C2.14562 16.1149 3.42011 17.5045 4.99565 18.4755C6.57119 19.4466 8.38577 19.9608 10.2368 19.9609Z" fill="#34A853"/>
<path d="M4.63153 11.8916C4.21359 10.6525 4.21359 9.31052 4.63153 8.07135V5.5H1.3153C0.616097 6.89054 0.251953 8.42523 0.251953 9.98149C0.251953 11.5377 0.616097 13.0724 1.3153 14.463L4.63153 11.8916Z" fill="#FBBC04"/>
<path d="M10.2368 3.95124C11.6609 3.92799 13.037 4.46575 14.0676 5.4483L16.9178 2.59972C15.1105 0.903157 12.7162 -0.0282871 10.2368 0.000654809C8.38577 0.000739123 6.57119 0.515 4.99565 1.48602C3.42011 2.45705 2.14562 3.84661 1.31445 5.49959L4.63068 8.07094C5.42125 5.70613 7.63208 3.95124 10.2368 3.95124Z" fill="#EA4335"/>
</svg>
