<svg width="60" height="20" viewBox="0 0 60 20" fill="none" xmlns="http://www.w3.org/2000/svg">
<g clip-path="url(#clip0)">
<path d="M26.3778 18.8833H21.582L24.5816 0.335938H29.3772L26.3778 18.8833Z" fill="#00579F"/>
<path d="M43.7629 0.789636C42.817 0.414356 41.3167 0 39.4615 0C34.7255 0 31.3905 2.52547 31.3701 6.13613C31.3307 8.80007 33.7578 10.2797 35.5731 11.1679C37.4286 12.0756 38.0593 12.668 38.0593 13.477C38.0404 14.7196 36.56 15.2923 35.1792 15.2923C33.2645 15.2923 32.2386 14.997 30.6795 14.3057L30.0481 14.0094L29.377 18.1729C30.5017 18.6853 32.574 19.1401 34.7255 19.16C39.7576 19.16 43.0336 16.6736 43.0724 12.8259C43.0916 10.7145 41.81 9.09667 39.0469 7.77467C37.3695 6.92603 36.3423 6.3538 36.3423 5.48549C36.362 4.69611 37.2111 3.8876 39.1046 3.8876C40.6637 3.848 41.8092 4.22275 42.677 4.59777L43.1107 4.79472L43.7629 0.789636Z" fill="#00579F"/>
<path d="M50.1366 12.3126C50.5316 11.2471 52.0513 7.12323 52.0513 7.12323C52.0314 7.16283 52.4455 6.03804 52.6823 5.34754L53.0175 6.94569C53.0175 6.94569 53.9256 11.3853 54.1228 12.3126C53.3733 12.3126 51.0839 12.3126 50.1366 12.3126ZM56.0564 0.335938H52.3469C51.2029 0.335938 50.3339 0.671093 49.8403 1.87482L42.7168 18.8831H47.7489C47.7489 18.8831 48.5773 16.5939 48.7554 16.1008C49.3074 16.1008 54.2026 16.1008 54.9127 16.1008C55.0504 16.752 55.485 18.8831 55.485 18.8831H59.9254L56.0564 0.335938Z" fill="#00579F"/>
<path d="M17.5747 0.335938L12.8781 12.9835L12.3648 10.4184C11.4965 7.45865 8.77333 4.24294 5.73438 2.644L10.0363 18.8637H15.1077L22.6458 0.335938H17.5747Z" fill="#00579F"/>
<path d="M8.51752 0.335938H0.801593L0.722656 0.710693C6.74156 2.24984 10.7278 5.95989 12.3655 10.4192L10.6882 1.89501C10.412 0.710431 9.56337 0.375013 8.51752 0.335938Z" fill="#FAA61A"/>
</g>
<defs>
<clipPath id="clip0">
<rect width="59.2019" height="19.16" fill="white" transform="translate(0.722656)"/>
</clipPath>
</defs>
</svg>
