<svg width="40" height="30" viewBox="0 0 40 30" fill="none" xmlns="http://www.w3.org/2000/svg">
<g clip-path="url(#clip0)">
<path d="M7.96024 29.9332V27.9421C7.96024 27.1788 7.49564 26.681 6.69918 26.681C6.30095 26.681 5.86954 26.8138 5.57087 27.2452C5.33857 26.8801 5.0067 26.681 4.50892 26.681C4.17706 26.681 3.8452 26.7806 3.57972 27.1456V26.7474H2.88281V29.9332H3.57972V28.1744C3.57972 27.6102 3.87839 27.3447 4.34299 27.3447C4.80759 27.3447 5.03989 27.6434 5.03989 28.1744V29.9332H5.7368V28.1744C5.7368 27.6102 6.06865 27.3447 6.50007 27.3447C6.96467 27.3447 7.19697 27.6434 7.19697 28.1744V29.9332H7.96024ZM18.281 26.7474H17.1527V25.785H16.4558V26.7474H15.8253V27.3779H16.4558V28.8381C16.4558 29.5682 16.7545 29.9996 17.5509 29.9996C17.8496 29.9996 18.1815 29.9 18.4138 29.7673L18.2147 29.1699C18.0155 29.3027 17.7833 29.3359 17.6173 29.3359C17.2855 29.3359 17.1527 29.1368 17.1527 28.8049V27.3779H18.281V26.7474ZM24.1881 26.681C23.7899 26.681 23.5244 26.8801 23.3585 27.1456V26.7474H22.6616V29.9332H23.3585V28.1412C23.3585 27.6102 23.5908 27.3115 24.0222 27.3115C24.1549 27.3115 24.3209 27.3447 24.4536 27.3779L24.6527 26.7142C24.52 26.681 24.3209 26.681 24.1881 26.681ZM15.2611 27.0129C14.9293 26.7806 14.4647 26.681 13.9669 26.681C13.1704 26.681 12.6394 27.0792 12.6394 27.7098C12.6394 28.2407 13.0377 28.5394 13.7346 28.639L14.0664 28.6722C14.4315 28.7385 14.6306 28.8381 14.6306 29.004C14.6306 29.2363 14.3651 29.4023 13.9005 29.4023C13.4359 29.4023 13.0709 29.2363 12.8386 29.0704L12.5067 29.6014C12.8717 29.8669 13.3695 29.9996 13.8673 29.9996C14.7965 29.9996 15.3275 29.5682 15.3275 28.9708C15.3275 28.4067 14.8961 28.108 14.2324 28.0084L13.9005 27.9753C13.6018 27.9421 13.3695 27.8757 13.3695 27.6766C13.3695 27.4443 13.6018 27.3115 13.9669 27.3115C14.3651 27.3115 14.7633 27.4775 14.9625 27.577L15.2611 27.0129ZM33.7788 26.681C33.3806 26.681 33.1151 26.8801 32.9492 27.1456V26.7474H32.2523V29.9332H32.9492V28.1412C32.9492 27.6102 33.1815 27.3115 33.6129 27.3115C33.7456 27.3115 33.9116 27.3447 34.0443 27.3779L34.2434 26.7142C34.1107 26.681 33.9116 26.681 33.7788 26.681ZM24.885 28.3403C24.885 29.3027 25.5487 29.9996 26.5775 29.9996C27.0421 29.9996 27.374 29.9 27.7058 29.6346L27.374 29.0704C27.1085 29.2695 26.843 29.3691 26.5443 29.3691C25.9802 29.3691 25.5819 28.9708 25.5819 28.3403C25.5819 27.743 25.9802 27.3447 26.5443 27.3115C26.843 27.3115 27.1085 27.4111 27.374 27.6102L27.7058 27.0461C27.374 26.7806 27.0421 26.681 26.5775 26.681C25.5487 26.681 24.885 27.3779 24.885 28.3403ZM31.3231 28.3403V26.7474H30.6262V27.1456C30.3939 26.8469 30.062 26.681 29.6306 26.681C28.7346 26.681 28.0377 27.3779 28.0377 28.3403C28.0377 29.3027 28.7346 29.9996 29.6306 29.9996C30.0952 29.9996 30.4271 29.8337 30.6262 29.535V29.9332H31.3231V28.3403ZM28.7678 28.3403C28.7678 27.7761 29.1328 27.3115 29.7302 27.3115C30.2943 27.3115 30.6925 27.743 30.6925 28.3403C30.6925 28.9045 30.2943 29.3691 29.7302 29.3691C29.1328 29.3359 28.7678 28.9045 28.7678 28.3403ZM20.4381 26.681C19.5089 26.681 18.8452 27.3447 18.8452 28.3403C18.8452 29.3359 19.5089 29.9996 20.4713 29.9996C20.9359 29.9996 21.4005 29.8669 21.7656 29.5682L21.4337 29.0704C21.1682 29.2695 20.8364 29.4023 20.5045 29.4023C20.0731 29.4023 19.6417 29.2031 19.5421 28.639H21.8983C21.8983 28.5394 21.8983 28.473 21.8983 28.3735C21.9315 27.3447 21.3341 26.681 20.4381 26.681ZM20.4381 27.2784C20.8695 27.2784 21.1682 27.5438 21.2346 28.0416H19.5753C19.6417 27.6102 19.9403 27.2784 20.4381 27.2784ZM37.7279 28.3403V25.4863H37.031V27.1456C36.7987 26.8469 36.4669 26.681 36.0355 26.681C35.1394 26.681 34.4425 27.3779 34.4425 28.3403C34.4425 29.3027 35.1394 29.9996 36.0355 29.9996C36.5001 29.9996 36.8319 29.8337 37.031 29.535V29.9332H37.7279V28.3403ZM35.1726 28.3403C35.1726 27.7761 35.5377 27.3115 36.135 27.3115C36.6992 27.3115 37.0974 27.743 37.0974 28.3403C37.0974 28.9045 36.6992 29.3691 36.135 29.3691C35.5377 29.3359 35.1726 28.9045 35.1726 28.3403ZM11.8762 28.3403V26.7474H11.1793V27.1456C10.947 26.8469 10.6151 26.681 10.1837 26.681C9.28768 26.681 8.59077 27.3779 8.59077 28.3403C8.59077 29.3027 9.28768 29.9996 10.1837 29.9996C10.6483 29.9996 10.9802 29.8337 11.1793 29.535V29.9332H11.8762V28.3403ZM9.28768 28.3403C9.28768 27.7761 9.65272 27.3115 10.2501 27.3115C10.8142 27.3115 11.2125 27.743 11.2125 28.3403C11.2125 28.9045 10.8142 29.3691 10.2501 29.3691C9.65272 29.3359 9.28768 28.9045 9.28768 28.3403Z" fill="black"/>
<path d="M25.4809 2.55469H15.0273V21.3379H25.4809V2.55469Z" fill="#FF5F00"/>
<path d="M15.6915 11.9469C15.6915 8.13053 17.4836 4.74558 20.238 2.55531C18.2136 0.962393 15.6583 0 12.8707 0C6.26675 0 0.923828 5.34292 0.923828 11.9469C0.923828 18.5509 6.26675 23.8938 12.8707 23.8938C15.6583 23.8938 18.2136 22.9314 20.238 21.3385C17.4836 19.1814 15.6915 15.7633 15.6915 11.9469Z" fill="#EB001B"/>
<path d="M39.5856 11.9469C39.5856 18.5509 34.2427 23.8938 27.6387 23.8938C24.8511 23.8938 22.2958 22.9314 20.2715 21.3385C23.0591 19.1482 24.8179 15.7633 24.8179 11.9469C24.8179 8.13053 23.0259 4.74558 20.2715 2.55531C22.2958 0.962393 24.8511 0 27.6387 0C34.2427 0 39.5856 5.37611 39.5856 11.9469Z" fill="#F79E1B"/>
</g>
<defs>
<clipPath id="clip0">
<rect width="38.6615" height="30" fill="white" transform="translate(0.923828)"/>
</clipPath>
</defs>
</svg>
