<svg width="115" height="18" viewBox="0 0 115 18" fill="none" xmlns="http://www.w3.org/2000/svg">
<path d="M0 0.298342H2.97186V7.83149H10.7793V0.298342H13.7511V17.7017H10.7793V10.1188H2.97186V17.7017H0V0.298342Z" fill="#1A2F34"/>
<path d="M24.5722 18C22.2719 18 20.5089 17.4613 19.2832 16.384C18.0576 15.3066 17.4447 13.732 17.4447 11.6602V6.33978C17.4447 4.26796 18.0576 2.69337 19.2832 1.61602C20.5089 0.538674 22.2719 0 24.5722 0C26.8724 0 28.627 0.538674 29.8359 1.61602C31.0616 2.69337 31.6744 4.26796 31.6744 6.33978V11.6602C31.6744 13.732 31.0616 15.3066 29.8359 16.384C28.627 17.4613 26.8724 18 24.5722 18ZM24.5722 15.6878C25.8986 15.6878 26.9144 15.3481 27.6196 14.6685C28.3415 13.9724 28.7025 12.9696 28.7025 11.6602V6.33978C28.7025 5.03039 28.3415 4.03591 27.6196 3.35635C26.9144 2.66022 25.8986 2.31215 24.5722 2.31215C23.2289 2.31215 22.1963 2.66022 21.4744 3.35635C20.7692 4.03591 20.4166 5.03039 20.4166 6.33978V11.6602C20.4166 12.9696 20.7692 13.9724 21.4744 14.6685C22.1963 15.3481 23.2289 15.6878 24.5722 15.6878Z" fill="#1A2F34"/>
<path d="M40.6319 17.7017C38.5499 17.7017 37.0388 17.2541 36.0985 16.3591C35.1751 15.4475 34.7133 14.1133 34.7133 12.3564V0.298342H37.6852V12.3564C37.6852 13.4006 37.9203 14.1713 38.3904 14.6685C38.8773 15.1492 39.6245 15.3895 40.6319 15.3895H46.2734V17.7017H40.6319Z" fill="#1A2F34"/>
<path d="M54.824 18C52.5237 18 50.7607 17.4613 49.5351 16.384C48.3094 15.3066 47.6965 13.732 47.6965 11.6602V6.33978C47.6965 4.26796 48.3094 2.69337 49.5351 1.61602C50.7607 0.538674 52.5237 0 54.824 0C57.1242 0 58.8788 0.538674 60.0877 1.61602C61.3134 2.69337 61.9262 4.26796 61.9262 6.33978V11.6602C61.9262 13.732 61.3134 15.3066 60.0877 16.384C58.8788 17.4613 57.1242 18 54.824 18ZM54.824 15.6878C56.1504 15.6878 57.1662 15.3481 57.8714 14.6685C58.5934 13.9724 58.9544 12.9696 58.9544 11.6602V6.33978C58.9544 5.03039 58.5934 4.03591 57.8714 3.35635C57.1662 2.66022 56.1504 2.31215 54.824 2.31215C53.4808 2.31215 52.4482 2.66022 51.7262 3.35635C51.021 4.03591 50.6684 5.03039 50.6684 6.33978V11.6602C50.6684 12.9696 51.021 13.9724 51.7262 14.6685C52.4482 15.3481 53.4808 15.6878 54.824 15.6878Z" fill="#1A2F34"/>
<path d="M65.5948 0.298342H72.0674C73.9983 0.298342 75.5262 0.58011 76.6511 1.14365C77.7761 1.70718 78.5904 2.61878 79.0941 3.87845C79.5978 5.12155 79.8497 6.82873 79.8497 9C79.8497 11.1713 79.5978 12.8867 79.0941 14.1464C78.5904 15.3895 77.7761 16.2928 76.6511 16.8564C75.5262 17.4199 73.9983 17.7017 72.0674 17.7017H65.5948V0.298342ZM72.0674 15.3895C73.2595 15.3895 74.1998 15.1823 74.8882 14.768C75.5933 14.3536 76.097 13.6906 76.3993 12.779C76.7183 11.8508 76.8778 10.5912 76.8778 9C76.8778 7.40884 76.7183 6.15746 76.3993 5.24586C76.097 4.31768 75.5933 3.64641 74.8882 3.23204C74.1998 2.81768 73.2595 2.6105 72.0674 2.6105H68.5667V15.3895H72.0674Z" fill="#1A2F34"/>
<path d="M89.798 18C87.4978 18 85.7348 17.4613 84.5091 16.384C83.2834 15.3066 82.6706 13.732 82.6706 11.6602V6.33978C82.6706 4.26796 83.2834 2.69337 84.5091 1.61602C85.7348 0.538674 87.4978 0 89.798 0C92.0983 0 93.8529 0.538674 95.0617 1.61602C96.2874 2.69337 96.9003 4.26796 96.9003 6.33978V11.6602C96.9003 13.732 96.2874 15.3066 95.0617 16.384C93.8529 17.4613 92.0983 18 89.798 18ZM89.798 15.6878C91.1245 15.6878 92.1403 15.3481 92.8454 14.6685C93.5674 13.9724 93.9284 12.9696 93.9284 11.6602V6.33978C93.9284 5.03039 93.5674 4.03591 92.8454 3.35635C92.1403 2.66022 91.1245 2.31215 89.798 2.31215C88.4548 2.31215 87.4222 2.66022 86.7002 3.35635C85.9951 4.03591 85.6425 5.03039 85.6425 6.33978V11.6602C85.6425 12.9696 85.9951 13.9724 86.7002 14.6685C87.4222 15.3481 88.4548 15.6878 89.798 15.6878Z" fill="#1A2F34"/>
<path d="M108.603 7.13536C109.392 7.3011 110.039 7.5663 110.542 7.93094C111.046 8.29558 111.474 8.79282 111.827 9.42265C112.196 10.0525 112.565 10.8895 112.935 11.9337L114.874 17.7017H111.877L110.013 12.2072C109.778 11.511 109.543 10.9724 109.308 10.5912C109.073 10.2099 108.754 9.90331 108.351 9.67127C107.948 9.43923 107.386 9.28177 106.664 9.19889L103.541 12.5552V17.7017H100.569V0.298342H103.541V8.92541L111.449 0.298342H115L108.603 7.13536Z" fill="#1A2F34"/>
</svg>
