<svg width="30" height="29" viewBox="0 0 30 29" fill="none" xmlns="http://www.w3.org/2000/svg">
<g clip-path="url(#clip0)">
<path d="M4.27829 0.00195312H25.8328C27.8806 0.00195312 29.5547 1.67661 29.5547 3.72439V25.2789C29.5547 27.3261 27.8806 28.9996 25.8328 28.9996H4.27829C2.2305 28.9996 0.554688 27.326 0.554688 25.2789V3.72439C0.554688 1.67661 2.2305 0.00195312 4.27829 0.00195312ZM21.6808 3.2226C20.9618 3.2226 20.3753 3.81139 20.3753 4.53001V7.6537C20.3753 8.37261 20.9618 8.96005 21.6808 8.96005H24.9581C25.6759 8.96005 26.2637 8.37261 26.2637 7.6537V4.53001C26.2637 3.81139 25.6759 3.2226 24.9581 3.2226H21.6808ZM26.2761 12.2647H23.7245C23.9665 13.0549 24.0977 13.8883 24.0977 14.7547C24.0977 19.5767 20.0603 23.4876 15.0819 23.4876C10.1049 23.4876 6.06739 19.5767 6.06739 14.7547C6.06739 13.8883 6.19983 13.0549 6.44062 12.2647H3.77852V24.5155C3.77852 25.1499 4.29656 25.666 4.9304 25.666H25.1247C25.7592 25.666 26.2761 25.1499 26.2761 24.5155V12.2647ZM15.082 8.79533C11.8669 8.79533 9.25884 11.321 9.25884 14.4395C9.25884 17.5548 11.8669 20.0824 15.082 20.0824C18.2989 20.0824 20.9071 17.5548 20.9071 14.4395C20.9071 11.3209 18.2989 8.79533 15.082 8.79533Z" fill="#1A2F34"/>
</g>
<defs>
<clipPath id="clip0">
<rect width="29" height="29" fill="white" transform="translate(0.554688)"/>
</clipPath>
</defs>
</svg>
