<svg width="39" height="28" viewBox="0 0 39 28" fill="none" xmlns="http://www.w3.org/2000/svg">
<path d="M19.5522 26.5928C18.5452 26.5928 17.6952 25.844 17.5682 24.845L15.8052 10.9772C15.6003 9.3648 14.44 8.03676 12.8698 7.61718L2.52684 4.8535C1.64702 4.61841 1.04507 3.80823 1.07393 2.89799C1.10748 1.84034 1.97458 1.00031 3.03276 1.00031L36.0214 1.00031C37.1138 1.00031 37.9993 1.88609 37.9989 2.9785C37.9985 3.85781 37.4176 4.63127 36.5732 4.87664L27.1675 7.60978C25.674 8.04375 24.5675 9.30401 24.3304 10.841L22.1619 24.8977C22.0114 25.873 21.1721 26.5928 20.1853 26.5928L19.5522 26.5928Z" stroke="#1A2F34" stroke-width="2"/>
</svg>
