<svg width="18" height="39" viewBox="0 0 18 39" fill="none" xmlns="http://www.w3.org/2000/svg">
<path fill-rule="evenodd" clip-rule="evenodd" d="M4.35013 0.642364C5.0543 0.271891 5.84052 0 6.60606 0H11.3712C12.1368 0 12.923 0.271891 13.6271 0.642364C14.3444 1.01972 15.0497 1.53778 15.6712 2.12075C16.2921 2.70323 16.8537 3.37324 17.2663 4.06926C17.6713 4.75232 17.9773 5.53587 17.9773 6.32576V12.4924C17.9773 13.7317 17.5183 14.8661 16.7624 15.7313L16.7497 15.7457C16.3099 16.2491 15.9134 16.7029 15.6157 17.1784C15.3214 17.6485 15.1742 18.0642 15.1742 18.4652V22.2631C15.1742 23.0204 15.5402 23.731 16.1566 24.1708C17.2991 24.986 17.9773 26.303 17.9773 27.7065V35.3045C17.9773 37.3455 16.3227 39 14.2818 39H3.69551C1.65454 39 0 37.3455 0 35.3045V27.7065C0 26.303 0.678187 24.986 1.82069 24.1708C2.43712 23.731 2.80303 23.0204 2.80303 22.2631V18.4652C2.80303 18.0642 2.65585 17.6485 2.36153 17.1784C2.06389 16.7029 1.66737 16.2491 1.22755 15.7457L1.2149 15.7313C0.458982 14.8661 0 13.7317 0 12.4924V6.32576C0 5.53587 0.306007 4.75232 0.71096 4.06926C1.1236 3.37324 1.68514 2.70323 2.30611 2.12075C2.92759 1.53778 3.63288 1.01972 4.35013 0.642364ZM2.43135 5.0892C2.12382 5.60791 2 6.03193 2 6.32576V12.4924C2 13.2296 2.27136 13.9007 2.72098 14.4153C2.73912 14.4361 2.75744 14.457 2.77592 14.4782C3.18378 14.9446 3.6729 15.5039 4.05678 16.1172C4.46422 16.768 4.80303 17.5544 4.80303 18.4652V22.2631C4.80303 23.6667 4.12484 24.9837 2.98234 25.7989C2.36591 26.2387 2 26.9493 2 27.7065V35.3045C2 36.2409 2.75911 37 3.69551 37H14.2818C15.2182 37 15.9773 36.2409 15.9773 35.3045V27.7065C15.9773 26.9493 15.6114 26.2387 14.9949 25.7989C13.8524 24.9837 13.1742 23.6667 13.1742 22.2631V18.4652C13.1742 17.5544 13.5131 16.768 13.9205 16.1172C14.3044 15.5039 14.7935 14.9446 15.2014 14.4782C15.2198 14.457 15.2382 14.4361 15.2563 14.4153C15.7059 13.9007 15.9773 13.2296 15.9773 12.4924V6.32576C15.9773 6.03193 15.8535 5.60791 15.5459 5.0892C15.2461 4.58344 14.8125 4.05748 14.3029 3.57944C13.7938 3.1019 13.233 2.69492 12.6959 2.41235C12.1458 2.1229 11.6894 2 11.3712 2H6.60606C6.28789 2 5.8315 2.1229 5.28134 2.41235C4.74425 2.69492 4.18349 3.1019 3.67439 3.57944C3.16477 4.05748 2.73119 4.58344 2.43135 5.0892Z" fill="#1A2F34"/>
</svg>
