<svg width="29" height="36" viewBox="0 0 29 36" fill="none" xmlns="http://www.w3.org/2000/svg">
<path fill-rule="evenodd" clip-rule="evenodd" d="M26.3654 31.738C26.9526 31.3266 27 31.0617 27 31C27 30.4477 27.4477 30 28 30C28.5523 30 29 30.4477 29 31C29 32.0428 28.2919 32.8303 27.5129 33.376C26.7057 33.9414 25.6028 34.4101 24.33 34.7872C21.7715 35.5453 18.2963 36 14.5 36C10.7037 36 7.22854 35.5453 4.66997 34.7872C3.39717 34.4101 2.29431 33.9414 1.48715 33.376C0.708105 32.8303 3.476e-07 32.0428 4.39203e-07 31C4.87716e-07 30.4477 0.447716 30 1 30C1.55228 30 2 30.4477 2 31C2 31.0617 2.04742 31.3266 2.63465 31.7379C3.19376 32.1296 4.06793 32.5229 5.23815 32.8696C7.56561 33.5592 10.8404 34 14.5 34C18.1596 34 21.4344 33.5592 23.7619 32.8696C24.9321 32.5229 25.8062 32.1296 26.3654 31.738Z" fill="#1A2F34"/>
<path fill-rule="evenodd" clip-rule="evenodd" d="M14.4989 28C15.131 28 15.7524 27.9835 16.3599 27.9515C16.9114 27.9226 17.382 28.3462 17.411 28.8977C17.44 29.4492 17.0164 29.9198 16.4648 29.9488C15.8222 29.9826 15.1658 30 14.4989 30C13.8319 30 13.1756 29.9826 12.5329 29.9488C11.9814 29.9198 11.5578 29.4492 11.5868 28.8977C11.6158 28.3462 12.0864 27.9226 12.6379 27.9515C13.2454 27.9835 13.8667 28 14.4989 28ZM19.2292 28.7019C19.1349 28.1577 19.4996 27.6401 20.0437 27.5458C21.3739 27.3152 22.5664 27.0064 23.5783 26.6413C24.0979 26.4539 24.6709 26.7231 24.8584 27.2427C25.0458 27.7622 24.7766 28.3352 24.257 28.5227C23.117 28.9339 21.809 29.2696 20.3853 29.5164C19.8411 29.6107 19.3235 29.246 19.2292 28.7019ZM9.76855 28.7019C9.67423 29.246 9.15663 29.6107 8.61246 29.5164C7.18874 29.2696 5.88075 28.9339 4.74072 28.5227C4.2212 28.3352 3.95199 27.7622 4.1394 27.2427C4.32682 26.7231 4.8999 26.4539 5.41941 26.6413C6.43136 27.0064 7.62387 27.3152 8.95403 27.5458C9.4982 27.6401 9.86287 28.1577 9.76855 28.7019Z" fill="#1A2F34"/>
<path fill-rule="evenodd" clip-rule="evenodd" d="M14.4989 21C15.131 21 15.7524 20.9835 16.3599 20.9515C16.9114 20.9226 17.382 21.3462 17.411 21.8977C17.44 22.4492 17.0164 22.9198 16.4648 22.9488C15.8222 22.9826 15.1658 23 14.4989 23C13.8319 23 13.1756 22.9826 12.5329 22.9488C11.9814 22.9198 11.5578 22.4492 11.5868 21.8977C11.6158 21.3462 12.0864 20.9226 12.6379 20.9515C13.2454 20.9835 13.8667 21 14.4989 21ZM19.2292 21.7019C19.1349 21.1577 19.4996 20.6401 20.0437 20.5458C21.3739 20.3152 22.5664 20.0064 23.5783 19.6413C24.0979 19.4539 24.6709 19.7231 24.8584 20.2427C25.0458 20.7622 24.7766 21.3352 24.257 21.5227C23.117 21.9339 21.809 22.2696 20.3853 22.5164C19.8411 22.6107 19.3235 22.246 19.2292 21.7019ZM9.76855 21.7019C9.67423 22.246 9.15663 22.6107 8.61246 22.5164C7.18874 22.2696 5.88075 21.9339 4.74072 21.5227C4.2212 21.3352 3.95199 20.7622 4.1394 20.2427C4.32682 19.7231 4.8999 19.4539 5.41941 19.6413C6.43136 20.0064 7.62387 20.3152 8.95403 20.5458C9.4982 20.6401 9.86287 21.1577 9.76855 21.7019Z" fill="#1A2F34"/>
<path fill-rule="evenodd" clip-rule="evenodd" d="M14.5006 14C15.114 14 15.7173 13.9876 16.3079 13.9637C16.8597 13.9413 17.3252 14.3705 17.3476 14.9223C17.37 15.4741 16.9407 15.9396 16.3889 15.962C15.7712 15.9871 15.1409 16 14.5006 16C13.8603 16 13.23 15.9871 12.6123 15.962C12.0604 15.9396 11.6312 15.4741 11.6536 14.9223C11.676 14.3705 12.1415 13.9413 12.6933 13.9637C13.2839 13.9876 13.8872 14 14.5006 14ZM19.0378 14.7823C18.9649 14.2349 19.3496 13.732 19.897 13.6591C21.1979 13.4858 22.3747 13.2531 23.3878 12.9763C23.9205 12.8306 24.4704 13.1445 24.616 13.6772C24.7616 14.21 24.4478 14.7599 23.915 14.9055C22.8009 15.21 21.5344 15.4587 20.161 15.6416C19.6136 15.7145 19.1107 15.3298 19.0378 14.7823ZM9.96342 14.7823C9.89052 15.3298 9.38762 15.7145 8.84017 15.6416C7.46674 15.4587 6.20023 15.21 5.08613 14.9055C4.55338 14.7599 4.23954 14.21 4.38515 13.6772C4.53075 13.1445 5.08066 12.8306 5.61341 12.9762C6.62648 13.2531 7.80325 13.4858 9.10417 13.6591C9.65162 13.732 10.0363 14.2349 9.96342 14.7823Z" fill="#1A2F34"/>
<path fill-rule="evenodd" clip-rule="evenodd" d="M27.0073 4.9387C27.0073 4.9387 27.0069 4.94183 27.0045 4.948C27.0059 4.94177 27.0073 4.9387 27.0073 4.9387ZM26.9778 5C26.9343 4.92844 26.8312 4.79501 26.5968 4.6039C26.1134 4.20981 25.2924 3.76602 24.1011 3.35521C21.7376 2.54023 18.3431 2 14.5 2C10.6569 2 7.26239 2.54023 4.89893 3.35521C3.70759 3.76602 2.88664 4.20981 2.40325 4.6039C2.16882 4.79502 2.06567 4.92844 2.02219 5C2.06567 5.07156 2.16882 5.20498 2.40325 5.3961C2.88664 5.79019 3.70759 6.23398 4.89893 6.64479C7.26239 7.45977 10.6569 8 14.5 8C18.3431 8 21.7376 7.45977 24.1011 6.64479C25.2924 6.23398 26.1134 5.79019 26.5968 5.3961C26.8312 5.20498 26.9343 5.07156 26.9778 5ZM1.9927 4.9387C1.9927 4.9387 1.99413 4.94177 1.99546 4.948C1.99312 4.94183 1.9927 4.9387 1.9927 4.9387ZM1.9927 5.0613C1.9927 5.0613 1.99312 5.05817 1.99546 5.052C1.99413 5.05823 1.9927 5.0613 1.9927 5.0613ZM27.0045 5.052C27.0069 5.05817 27.0073 5.0613 27.0073 5.0613C27.0073 5.0613 27.0059 5.05823 27.0045 5.052ZM14.5 10C22.5081 10 29 7.76142 29 5C29 2.23858 22.5081 0 14.5 0C6.49187 0 0 2.23858 0 5C0 7.76142 6.49187 10 14.5 10Z" fill="#1A2F34"/>
</svg>
