<svg width="84" height="30" viewBox="0 0 84 30" fill="none" xmlns="http://www.w3.org/2000/svg">
<g clip-path="url(#clip0)">
<path fill-rule="evenodd" clip-rule="evenodd" d="M36.7715 5.08984C36.7715 5.08984 36.7715 5.08984 38.5383 5.08984C39.1821 5.08984 39.5064 5.40792 39.5064 6.12599C39.5064 6.12599 39.5064 6.12599 39.5064 8.67057C39.5064 8.67057 39.5064 8.67057 42.9673 8.67057C42.9673 8.67057 42.9673 8.67057 42.9673 6.12599C42.9673 5.40792 43.2868 5.08984 44.0129 5.08984C44.0129 5.08984 44.0129 5.08984 45.7022 5.08984C45.7022 5.08984 45.7022 5.08984 45.7022 6.76213C45.7022 6.76213 45.7022 6.76213 44.981 6.76213L44.8987 6.84406C44.8987 6.84406 44.8987 6.84406 44.8987 14.0055C44.8987 14.0055 44.8987 14.0055 42.9673 14.0055C42.9673 14.0055 42.9673 14.0055 42.9673 10.4248C42.9673 10.4248 42.9673 10.4248 39.5064 10.4248C39.5064 10.4248 39.5064 10.4248 39.5064 14.0055C39.5064 14.0055 39.5064 14.0055 37.575 14.0055C37.575 14.0055 37.575 14.0055 37.575 6.84406C37.575 6.84406 37.575 6.76213 37.4927 6.76213C37.4927 6.76213 37.4927 6.76213 36.7715 6.76213C36.7715 6.76213 36.7715 6.76213 36.7715 5.08984Z" fill="#ED1C24"/>
<path fill-rule="evenodd" clip-rule="evenodd" d="M50.7698 4.92969L50.8133 4.93451V6.77065L50.7698 6.76101C49.3225 6.76101 48.1946 7.95619 48.1946 9.46945C48.1946 11.0598 49.3225 12.3321 50.7698 12.3321L50.8133 12.3225V14.1586L50.7698 14.1634C48.1946 14.1634 46.1035 12.096 46.1035 9.46945C46.1035 6.92005 48.1946 4.92969 50.7698 4.92969Z" fill="#ED1C24"/>
<path fill-rule="evenodd" clip-rule="evenodd" d="M50.8145 4.93555L51.71 5.0223C53.8349 5.43675 55.4372 7.23916 55.4372 9.47049C55.4372 11.7645 53.8349 13.6392 51.71 14.0681L50.8145 14.1596V12.3235L51.7971 12.1115C52.7458 11.6777 53.4283 10.6608 53.4283 9.47049C53.4283 8.33314 52.7458 7.37892 51.7971 6.9741L50.8145 6.77169V4.93555Z" fill="#ED1C24"/>
<path fill-rule="evenodd" clip-rule="evenodd" d="M55.8379 5.08984C55.8379 5.08984 55.8379 5.08984 58.5341 5.08984H59.8216V6.76213H59.7006C59.5409 6.76213 59.2166 6.76213 58.5728 6.76213C58.5728 6.76213 58.5728 6.76213 58.5728 8.59346C58.5728 8.59346 58.5728 8.59346 59.1198 8.59346H59.8216V10.1838H59.4102C59.2069 10.1838 58.9358 10.1838 58.5728 10.1838C58.5728 10.1838 58.5728 10.1838 58.5728 12.1742C58.5728 12.2561 58.5728 12.2561 58.6551 12.2561C58.6551 12.2561 58.6551 12.2561 59.2311 12.2561H59.8216V14.0055H59.6522C59.3618 14.0055 58.7761 14.0055 57.6095 14.0055C56.9657 14.0055 56.6463 13.6874 56.6463 12.9694V6.76213C56.6463 6.76213 56.6463 6.76213 55.8379 6.76213C55.8379 6.76213 55.8379 6.76213 55.8379 5.08984Z" fill="#ED1C24"/>
<path fill-rule="evenodd" clip-rule="evenodd" d="M59.8223 5.08984H59.861C61.6326 5.08984 62.6782 6.04406 62.6782 7.48021C62.6782 8.3525 62.2764 8.91153 61.8746 9.31153C62.6007 9.62961 63.0799 10.4248 63.0799 11.2971C63.0799 12.9694 61.7924 14.0055 59.9433 14.0055C59.9433 14.0055 59.9433 14.0055 59.9094 14.0055H59.8223V12.2561H60.0207C60.6645 12.2561 61.0711 11.8561 61.0711 11.22C61.0711 10.5838 60.6645 10.1838 60.0207 10.1838C60.0207 10.1838 60.0207 10.1838 59.8416 10.1838H59.8223V8.59346H59.861C60.4273 8.59346 60.7468 8.19346 60.7468 7.63924C60.7468 7.08021 60.4273 6.76213 59.861 6.76213C59.861 6.76213 59.861 6.76213 59.8416 6.76213H59.8223V5.08984Z" fill="#ED1C24"/>
<path fill-rule="evenodd" clip-rule="evenodd" d="M66.7834 5.08984C66.7834 5.08984 66.7834 5.08984 67.5966 5.08984H67.7467V7.63924C67.6692 7.79828 67.5869 8.03442 67.5869 8.27539C67.5869 8.27539 67.5869 8.27539 66.9431 10.1067C66.9431 10.1067 66.9431 10.1067 67.6257 10.1067H67.7467V11.7742H67.311C67.0642 11.7742 66.7834 11.7742 66.4639 11.7742C66.4639 11.7742 66.4639 11.7742 65.8976 13.2103C65.7379 13.7645 65.4184 14.0055 64.7746 14.0055C64.7746 14.0055 64.7746 14.0055 63.5645 14.0055C63.5645 14.0055 63.5645 14.0055 63.5645 12.2561C63.5645 12.2561 63.5645 12.2561 63.9662 12.2561C64.1308 12.2561 64.1308 12.2561 64.2082 12.1742C64.2082 12.1742 64.2082 12.1742 66.7834 5.08984Z" fill="#ED1C24"/>
<path fill-rule="evenodd" clip-rule="evenodd" d="M67.7461 5.08984H68.7142C68.7142 5.08984 68.7142 5.08984 71.2894 12.1742C71.3668 12.2561 71.3668 12.2561 71.5265 12.2561C71.5265 12.2561 71.5265 12.2561 71.8509 12.2561C71.8509 12.2561 71.8509 12.2561 71.8509 14.0055C71.8509 14.0055 71.8509 14.0055 70.723 14.0055C70.0792 14.0055 69.7598 13.7645 69.5952 13.1284C69.5952 13.1284 69.5952 13.1284 69.0337 11.7742C69.0337 11.7742 69.0337 11.7742 67.9494 11.7742H67.7461V10.1067H68.5496C68.5496 10.1067 68.5496 10.1067 67.9107 8.27539C67.9107 8.03442 67.8284 7.79828 67.7461 7.63924V5.08984Z" fill="#ED1C24"/>
<path fill-rule="evenodd" clip-rule="evenodd" d="M36.7715 16.5488C36.7715 16.5488 36.7715 16.5488 43.7709 16.5488C44.4147 16.5488 44.8164 16.8669 44.8164 17.585C44.8164 17.585 44.8164 17.585 44.8164 23.6332C44.8164 23.7103 44.8164 23.7103 44.8987 23.7103C44.8987 23.7103 44.8987 23.7103 45.5425 23.7103C45.5425 23.7103 45.5425 23.7103 45.5425 25.4645C45.5425 25.4645 45.5425 25.4645 43.8532 25.4645C43.1271 25.4645 42.8076 25.1464 42.8076 24.4283C42.8076 24.4283 42.8076 24.4283 42.8076 18.303C42.8076 18.303 42.8076 18.2211 42.7253 18.2211C42.7253 18.2211 42.7253 18.2211 39.5064 18.2211C39.5064 18.2211 39.5064 18.2211 39.5064 25.4645C39.5064 25.4645 39.5064 25.4645 37.575 25.4645C37.575 25.4645 37.575 25.4645 37.575 18.2211C37.575 18.2211 37.575 18.2211 36.7715 18.2211C36.7715 18.2211 36.7715 18.2211 36.7715 16.5488Z" fill="#ED1C24"/>
<path fill-rule="evenodd" clip-rule="evenodd" d="M50.6103 16.3906L50.649 16.3954V18.2316L50.6103 18.222C49.1581 18.222 48.0351 19.4171 48.0351 20.9304C48.0351 22.5207 49.1581 23.793 50.6103 23.793L50.649 23.7834V25.6195L50.6103 25.6244C48.0351 25.6244 46.0215 23.5521 46.0215 20.9304C46.0215 18.381 48.0351 16.3906 50.6103 16.3906Z" fill="#ED1C24"/>
<path fill-rule="evenodd" clip-rule="evenodd" d="M50.6484 16.3945L51.573 16.4813C53.7367 16.8957 55.276 18.6981 55.276 20.9295C55.276 23.2234 53.7367 25.0981 51.573 25.5271L50.6484 25.6186V23.7825L51.6698 23.5704C52.633 23.1367 53.2672 22.1198 53.2672 20.9295C53.2672 19.7921 52.633 18.8379 51.6698 18.4331L50.6484 18.2307V16.3945Z" fill="#ED1C24"/>
<path fill-rule="evenodd" clip-rule="evenodd" d="M55.6777 16.5488C55.6777 16.5488 55.6777 16.5488 57.4494 16.5488C58.0932 16.5488 58.4126 16.8669 58.4126 17.585C58.4126 17.585 58.4126 17.585 58.4126 23.6332C58.4126 23.7103 58.4126 23.7103 58.4949 23.7103C58.4949 23.7103 58.4949 23.7103 60.8281 23.7103C60.8281 23.7103 60.8281 23.7103 60.8281 16.5488C60.8281 16.5488 60.8281 16.5488 62.7594 16.5488C62.7594 16.5488 62.7594 16.5488 62.7594 23.7103C62.7594 23.7103 62.7594 23.7103 65.0926 23.7103C65.1748 23.7103 65.1748 23.7103 65.1748 23.6332C65.1748 23.6332 65.1748 23.6332 65.1748 17.585C65.1748 16.8669 65.4943 16.5488 66.1381 16.5488C66.1381 16.5488 66.1381 16.5488 67.9097 16.5488C67.9097 16.5488 67.9097 16.5488 67.9097 18.2211C67.9097 18.2211 67.9097 18.2211 67.1837 18.2211C67.1014 18.2211 67.1014 18.303 67.1014 18.303C67.1014 18.303 67.1014 18.303 67.1014 24.4283C67.1014 25.1464 66.7819 25.4645 66.1381 25.4645C66.1381 25.4645 66.1381 25.4645 57.5268 25.4645C56.8056 25.4645 56.4813 25.1464 56.4813 24.4283C56.4813 24.4283 56.4813 24.4283 56.4813 18.303C56.4813 18.303 56.4813 18.2211 56.4038 18.2211C56.4038 18.2211 56.4038 18.2211 55.6777 18.2211C55.6777 18.2211 55.6777 18.2211 55.6777 16.5488Z" fill="#ED1C24"/>
<path fill-rule="evenodd" clip-rule="evenodd" d="M69.4346 16.5488C69.4346 16.5488 69.4346 16.5488 75.4708 16.5488C76.1969 16.5488 76.4389 16.8669 76.4389 17.503C76.4389 17.503 76.4389 17.503 76.4389 19.0163H74.6673C74.6673 19.0163 74.6673 19.0163 74.6673 18.303C74.6673 18.2211 74.6673 18.2211 74.585 18.2211C74.585 18.2211 74.585 18.2211 73.462 18.2211C73.462 18.2211 73.462 18.2211 73.462 25.4645C73.462 25.4645 73.462 25.4645 71.5258 25.4645C71.5258 25.4645 71.5258 25.4645 71.5258 18.2211C71.5258 18.2211 71.5258 18.2211 70.4027 18.2211C70.3205 18.2211 70.3205 18.2211 70.3205 18.303C70.3205 18.303 70.3205 18.303 70.3205 19.0163C70.3205 19.0163 70.3205 19.0163 68.5488 19.0163C68.5488 19.0163 68.5488 19.0163 68.5488 17.503C68.5488 16.8669 68.7909 16.5488 69.4346 16.5488Z" fill="#ED1C24"/>
<path fill-rule="evenodd" clip-rule="evenodd" d="M78.9318 16.5488C78.9318 16.5488 78.9318 16.5488 79.745 16.5488H79.8951V19.0982C79.8128 19.2573 79.7354 19.4934 79.7354 19.7344C79.7354 19.7344 79.7353 19.7344 79.0916 21.5657C79.0916 21.5657 79.0916 21.5657 79.7692 21.5657H79.8951V23.2332H79.4594C79.2126 23.2332 78.9318 23.2332 78.6075 23.2332C78.6075 23.2332 78.6075 23.2332 78.046 24.5874C77.8863 25.2235 77.562 25.4645 76.9182 25.4645C76.9182 25.4645 76.9182 25.4645 75.7129 25.4645C75.7129 25.4645 75.7129 25.4645 75.7129 23.7103C75.7129 23.7103 75.7129 23.7103 76.1147 23.7103C76.2792 23.7103 76.2792 23.7103 76.3567 23.6332C76.3567 23.6332 76.3567 23.6332 78.9318 16.5488Z" fill="#ED1C24"/>
<path fill-rule="evenodd" clip-rule="evenodd" d="M79.8945 16.5488H80.8578C80.8578 16.5488 80.8578 16.5488 83.4378 23.6332C83.5153 23.7103 83.5153 23.7103 83.6798 23.7103H83.9993C83.9993 23.7103 83.9993 23.7103 83.9993 25.4645C83.9993 25.4645 83.9993 25.4645 82.8715 25.4645C82.2277 25.4645 81.9082 25.2235 81.7436 24.5874C81.7436 24.5874 81.7436 24.5874 81.1821 23.2332C81.1821 23.2332 81.1821 23.2332 80.0978 23.2332H79.8945V21.5657H80.6981C80.6981 21.5657 80.6981 21.5657 80.0543 19.7344C80.0543 19.4934 79.9768 19.2573 79.8945 19.0982V16.5488Z" fill="#ED1C24"/>
<path fill-rule="evenodd" clip-rule="evenodd" d="M24.3708 8.88216C24.4627 8.85325 24.5837 8.91108 24.7048 9.07012C24.7048 9.07012 24.7048 9.07012 30.1745 14.4002C30.494 14.7183 30.494 15.2002 30.1745 15.4364C30.1745 15.4364 30.1745 15.4364 24.7048 20.8484C24.5837 21.0075 24.4627 21.046 24.3708 20.9978C24.2788 20.9496 24.2207 20.8099 24.2207 20.6075V9.22915C24.2207 9.03156 24.2788 8.91108 24.3708 8.88216Z" fill="#ED1C24"/>
<path fill-rule="evenodd" clip-rule="evenodd" d="M15.013 0H15.4002L15.7729 0.154217C15.7729 0.154217 15.7729 0.154217 21.4025 5.7253C21.6445 6.04337 21.5622 6.28434 21.1604 6.28434C21.1604 6.28434 21.1604 6.28434 18.8273 6.28434C18.4255 6.28434 18.1061 6.60241 18.1061 7.00241C18.1061 7.00241 18.1061 7.00241 18.1061 11.1373C18.1061 11.5373 17.7817 11.8554 17.2977 11.8554C17.2977 11.8554 17.2977 11.8554 13.1978 11.8554C12.796 11.8554 12.4717 11.5373 12.4717 11.1373C12.4717 11.1373 12.4717 11.1373 12.4717 7.00241C12.4717 6.60241 12.1522 6.28434 11.7456 6.28434H9.25274C8.85098 6.28434 8.76869 6.04337 9.01071 5.7253C9.01071 5.7253 9.01072 5.7253 14.6451 0.154217L15.013 0Z" fill="#ED1C24"/>
<path fill-rule="evenodd" clip-rule="evenodd" d="M6.19345 8.7616C6.2951 8.80979 6.35803 8.94955 6.35803 9.15196V20.7664C6.35803 20.9688 6.2951 21.0893 6.19345 21.1279C6.09664 21.1664 5.95626 21.1279 5.79169 21.0074C5.79169 21.0074 5.79168 21.0074 0.239606 15.4363C-0.0798686 15.2002 -0.0798686 14.7182 0.239606 14.4002C0.239606 14.4002 0.239606 14.4001 5.79169 8.91099C5.95626 8.75196 6.09664 8.71341 6.19345 8.7616Z" fill="#ED1C24"/>
<path fill-rule="evenodd" clip-rule="evenodd" d="M13.1979 17.9043C13.1979 17.9043 13.1979 17.9043 17.2978 17.9043C17.7818 17.9043 18.1062 18.2224 18.1062 18.6224C18.1062 18.6224 18.1062 18.6224 18.1062 22.9983C18.1062 23.4754 18.4256 23.7935 18.8274 23.7935H21.0008C21.4026 23.7935 21.5623 24.0296 21.2428 24.2706C21.2428 24.2706 21.2428 24.2706 15.773 29.7597C15.6085 29.9188 15.41 30.0007 15.2067 30.0007C15.0082 30.0007 14.8049 29.9188 14.6452 29.7597C14.6452 29.7597 14.6452 29.7597 9.1754 24.2706C8.85109 24.0296 9.01082 23.7935 9.41259 23.7935C9.41259 23.7935 9.41259 23.7935 11.7457 23.7935C12.1523 23.7935 12.4718 23.4754 12.4718 22.9983C12.4718 22.9983 12.4718 22.9983 12.4718 18.6224C12.4718 18.2224 12.7961 17.9043 13.1979 17.9043Z" fill="#ED1C24"/>
</g>
<defs>
<clipPath id="clip0">
<rect width="84" height="30" fill="white"/>
</clipPath>
</defs>
</svg>
