<svg width="14" height="41" viewBox="0 0 14 41" fill="none" xmlns="http://www.w3.org/2000/svg">
<path fill-rule="evenodd" clip-rule="evenodd" d="M4.2632 0.511369C4.51759 0.325135 4.82143 0.238281 5.11574 0.238281H8.88426C9.17857 0.238281 9.48241 0.325136 9.7368 0.511369C9.99084 0.697354 10.2435 1.02736 10.2586 1.47944L10.4048 5.86821C10.6946 5.87397 10.992 5.96408 11.2405 6.15059C11.4978 6.34375 11.75 6.68669 11.75 7.14939V14.0309H12.625C12.9242 14.0309 13.2335 14.1207 13.4905 14.3136C13.7478 14.5067 14 14.8497 14 15.3124V37.9543C14 38.5553 13.588 38.9571 13.1906 39.1171C12.4878 39.4 10.1448 40.2383 7 40.2383C3.8552 40.2383 1.51217 39.4 0.809446 39.1171C0.411981 38.9571 0 38.5553 0 37.9543V15.3124C0 14.8497 0.252193 14.5067 0.509519 14.3136C0.766509 14.1207 1.07581 14.0309 1.375 14.0309H2.25V7.14939C2.25 6.68669 2.50219 6.34375 2.75952 6.15059C3.008 5.96408 3.30538 5.87397 3.59524 5.86821L3.74141 1.47944C3.75647 1.02737 4.00915 0.697354 4.2632 0.511369ZM5.71725 2.23828L5.57109 6.62675C5.55603 7.07883 5.30335 7.40884 5.0493 7.59482C4.81023 7.76985 4.52747 7.85709 4.25 7.86696V14.7494C4.25 15.2121 3.99781 15.555 3.74048 15.7482C3.48349 15.9411 3.17419 16.0309 2.875 16.0309H2V37.4266C2.8859 37.7325 4.69937 38.2383 7 38.2383C9.30063 38.2383 11.1141 37.7325 12 37.4266V16.0309H11.125C10.8258 16.0309 10.5165 15.9411 10.2595 15.7482C10.0022 15.555 9.75 15.2121 9.75 14.7494V7.86696C9.47253 7.85709 9.18978 7.76985 8.9507 7.59482C8.69666 7.40884 8.44397 7.07883 8.42891 6.62675L8.28275 2.23828H5.71725Z" fill="#1A2F34"/>
<path d="M6 9.23828C6 8.686 6.44772 8.23828 7 8.23828C7.55228 8.23828 8 8.686 8 9.23828V14.2383C8 14.7906 7.55228 15.2383 7 15.2383C6.44772 15.2383 6 14.7906 6 14.2383V9.23828Z" fill="#1A2F34"/>
</svg>
