<svg width="33" height="40" viewBox="0 0 33 40" fill="none" xmlns="http://www.w3.org/2000/svg">
<mask id="path-1-inside-1" fill="white">
<path fill-rule="evenodd" clip-rule="evenodd" d="M17.2457 12.735C17.2457 10.5442 18.9513 8.82919 20.5575 7.3394C21.3802 6.57644 21.8656 5.6365 21.8656 4.61987C21.8656 2.06838 18.808 0 15.0362 0C11.2645 0 8.20686 2.06838 8.20686 4.61987C8.20686 5.18854 8.35875 5.73321 8.63657 6.23633C9.33447 7.50017 10.2155 8.75774 10.2155 10.2015V12.5369C10.2155 12.6858 10.1333 12.8215 10.0067 12.8999C7.45957 14.4777 7.00475 18.3561 8.99086 21.5625C9.09274 21.727 9.19907 21.8865 9.30946 22.0409C10.3844 23.5446 11.4207 25.2053 11.4207 27.0537V27.5792C11.4207 30.4637 8.9903 32.7214 6.12729 32.3698L6.12706 32.3697C2.33333 31.9038 -0.0846341 31.6069 0.00226707 33.3466C0.151745 36.3391 7.50929 40.4122 16.4358 39.9663C23.6282 39.607 29.6447 36.4236 31.6327 33.635C32.43 32.5165 32.4447 30.7108 31.2397 30.0516C30.0489 29.4001 28.0608 30.0441 25.446 30.8911L25.446 30.8911C21.8233 32.0647 18.4509 29.2122 18.4509 25.4041C18.4509 24.0762 18.9765 22.7848 19.2835 21.4929C19.6935 19.7677 19.3595 17.6968 18.215 15.849C17.6702 14.9695 17.2457 13.9942 17.2457 12.9597V12.735Z"/>
</mask>
<path d="M8.99086 21.5625L10.6911 20.5094L8.99086 21.5625ZM6.12706 32.3697L6.41665 30.3908L6.39378 30.3875L6.37084 30.3847L6.12706 32.3697ZM0.00226707 33.3466L1.99978 33.2468L0.00226707 33.3466ZM16.4358 39.9663L16.336 37.9688L16.4358 39.9663ZM25.446 30.8911L24.8297 28.9885L24.8216 28.9911L24.8136 28.9938L25.446 30.8911ZM31.6327 33.635L30.0041 32.474L31.6327 33.635ZM21.9176 8.80578C23.0493 7.75619 23.8656 6.31506 23.8656 4.61987H19.8656C19.8656 4.95794 19.7111 5.39669 19.1975 5.87301L21.9176 8.80578ZM23.8656 4.61987C23.8656 2.48098 22.5831 0.777015 20.9859 -0.303439C19.3773 -1.39162 17.2678 -2 15.0362 -2V2C16.5764 2 17.8816 2.42581 18.7447 3.00969C19.6193 3.6013 19.8656 4.20727 19.8656 4.61987H23.8656ZM15.0362 -2C12.8046 -2 10.6951 -1.39162 9.08652 -0.303439C7.48932 0.777015 6.20686 2.48098 6.20686 4.61987H10.2069C10.2069 4.20727 10.4532 3.6013 11.3278 3.00969C12.1909 2.42581 13.4961 2 15.0362 2V-2ZM6.20686 4.61987C6.20686 5.55533 6.45892 6.43012 6.88577 7.20313L10.3874 5.26953C10.2586 5.03629 10.2069 4.82174 10.2069 4.61987H6.20686ZM12.2155 12.5369V10.2015H8.2155V12.5369H12.2155ZM10.6911 20.5094C9.04766 17.8561 9.79589 15.3831 11.0599 14.6002L8.95359 11.1997C5.12325 13.5722 4.96184 18.856 7.29061 22.6157L10.6911 20.5094ZM10.9365 20.8778C10.8517 20.7593 10.7698 20.6364 10.6911 20.5094L7.29061 22.6157C7.41568 22.8176 7.54643 23.0138 7.68244 23.204L10.9365 20.8778ZM13.4207 27.5792V27.0537H9.42068V27.5792H13.4207ZM5.83746 34.3487L5.83769 34.3487L6.41689 30.3909L6.41665 30.3908L5.83746 34.3487ZM1.99978 33.2468C2.00444 33.3402 1.94796 33.72 1.60474 33.9827C1.41471 34.1281 1.35479 34.0577 1.76811 34.0248C2.58352 33.9599 3.88898 34.1099 5.88327 34.3548L6.37084 30.3847C4.57141 30.1637 2.77103 29.9323 1.45075 30.0374C0.796222 30.0895 -0.0890081 30.2418 -0.82652 30.8064C-1.71722 31.4881 -2.04336 32.4832 -1.99524 33.4464L1.99978 33.2468ZM16.336 37.9688C12.1873 38.176 8.43161 37.328 5.74753 36.1216C4.40136 35.5166 3.39165 34.8516 2.74436 34.2458C2.04643 33.5927 1.99909 33.2331 1.99978 33.2468L-1.99524 33.4464C-1.91982 34.9564 -0.991407 36.2281 0.0111962 37.1664C1.06444 38.1521 2.48005 39.0385 4.10776 39.7701C7.37147 41.2369 11.7578 42.2025 16.5356 41.9638L16.336 37.9688ZM30.0041 32.474C29.2983 33.4641 27.6539 34.7715 25.1674 35.8868C22.7328 36.9788 19.6736 37.8021 16.336 37.9688L16.5356 41.9638C20.3904 41.7713 23.9357 40.8232 26.8044 39.5365C29.6212 38.2731 31.9791 36.5945 33.2612 34.7959L30.0041 32.474ZM26.0624 32.7938C27.4108 32.357 28.4284 32.0309 29.2514 31.874C30.1227 31.7079 30.3233 31.83 30.2798 31.8061L32.1996 28.297C30.9653 27.6217 29.5764 27.74 28.5023 27.9448C27.3798 28.1588 26.096 28.5783 24.8297 28.9885L26.0624 32.7938ZM26.0785 32.7885L26.0785 32.7885L24.8136 28.9938L24.8136 28.9938L26.0785 32.7885ZM16.5147 16.9022C17.4089 18.3458 17.6121 19.8757 17.3377 21.0305L21.2293 21.9553C21.7748 19.6597 21.3101 17.0478 19.9152 14.7959L16.5147 16.9022ZM15.2457 12.735V12.9597H19.2457V12.735H15.2457ZM20.4509 25.4041C20.4509 24.9933 20.5329 24.5314 20.6872 23.9402C20.8025 23.4988 21.0838 22.5677 21.2293 21.9553L17.3377 21.0305C17.1762 21.71 17.0413 22.0706 16.8169 22.9298C16.6317 23.6393 16.4509 24.4871 16.4509 25.4041H20.4509ZM24.8297 28.9885C22.7049 29.6768 20.4509 28.0786 20.4509 25.4041H16.4509C16.4509 30.3458 20.9417 34.4526 26.0624 32.7938L24.8297 28.9885ZM33.2612 34.7959C33.9304 33.8572 34.2618 32.6659 34.1821 31.531C34.1011 30.3767 33.5555 29.0388 32.1996 28.297L30.2798 31.8061C30.2276 31.7776 30.1892 31.7323 30.1742 31.7053C30.1653 31.6893 30.1854 31.7183 30.192 31.8111C30.1984 31.9031 30.1885 32.0238 30.1517 32.1548C30.1149 32.2856 30.0601 32.3955 30.0041 32.474L33.2612 34.7959ZM7.68244 23.204C8.76967 24.7249 9.42068 25.9124 9.42068 27.0537H13.4207C13.4207 24.4982 11.9991 22.3643 10.9365 20.8778L7.68244 23.204ZM19.9152 14.7959C19.4539 14.051 19.2457 13.4544 19.2457 12.9597H15.2457C15.2457 14.5339 15.8866 15.8881 16.5147 16.9022L19.9152 14.7959ZM9.42068 27.5792C9.42068 29.3249 7.98069 30.5824 6.37107 30.3847L5.88351 34.3549C9.99992 34.8604 13.4207 31.6026 13.4207 27.5792H9.42068ZM6.88577 7.20313C7.31017 7.97169 7.60492 8.42302 7.8784 9.00366C8.12189 9.5206 8.2155 9.89082 8.2155 10.2015H12.2155C12.2155 9.0684 11.8686 8.08797 11.4971 7.29923C11.1556 6.57419 10.6609 5.76482 10.3874 5.26953L6.88577 7.20313ZM8.2155 12.5369C8.2155 11.9337 8.54406 11.4533 8.95359 11.1997L11.0599 14.6002C11.7226 14.1897 12.2155 13.4379 12.2155 12.5369H8.2155ZM19.1975 5.87301C18.3941 6.61817 17.4253 7.54397 16.6651 8.62123C15.8912 9.71806 15.2457 11.0925 15.2457 12.735H19.2457C19.2457 12.1867 19.453 11.6082 19.9334 10.9274C20.4276 10.227 21.1147 9.55041 21.9176 8.80578L19.1975 5.87301Z" fill="#1A2F34" mask="url(#path-1-inside-1)"/>
</svg>
