<svg width="27" height="40" viewBox="0 0 27 40" fill="none" xmlns="http://www.w3.org/2000/svg">
<path fill-rule="evenodd" clip-rule="evenodd" d="M13.0233 38C19.1112 38 24.0465 33.0647 24.0465 26.9767C24.0465 25.4397 23.6475 23.0534 22.895 20.2449C22.152 17.4719 21.0996 14.4173 19.8735 11.5859C18.6404 8.73839 17.268 6.20156 15.9106 4.41262C15.2312 3.51724 14.6052 2.87576 14.06 2.47362C13.5081 2.0665 13.1715 2 13.0233 2C12.8751 2 12.5384 2.0665 11.9865 2.47362C11.4414 2.87576 10.8153 3.51724 10.1359 4.41262C8.77848 6.20156 7.40608 8.73839 6.17299 11.5859C4.94689 14.4173 3.89454 17.4719 3.1515 20.2449C2.39896 23.0534 2 25.4397 2 26.9767C2 33.0647 6.93528 38 13.0233 38ZM22 25C22 30.2636 18.2131 35 13 35C7.78693 35 4 30.2636 4 25C4 19.7364 7.78693 15 13 15C18.2131 15 22 19.7364 22 25ZM26.0465 26.9767C26.0465 34.1693 20.2158 40 13.0233 40C5.83071 40 0 34.1693 0 26.9767C0 19.7842 7.22606 0 13.0233 0C18.8205 0 26.0465 19.7842 26.0465 26.9767ZM20 25C20 29.4183 16.866 33 13 33C9.13401 33 6 29.4183 6 25C6 20.5817 9.13401 17 13 17C16.866 17 20 20.5817 20 25Z" fill="#1A2F34"/>
<path fill-rule="evenodd" clip-rule="evenodd" d="M13 10C13.5523 10 14 9.55228 14 9C14 8.44772 13.5523 8 13 8C12.4477 8 12 8.44772 12 9C12 9.55228 12.4477 10 13 10ZM13 12C14.6569 12 16 10.6569 16 9C16 7.34315 14.6569 6 13 6C11.3431 6 10 7.34315 10 9C10 10.6569 11.3431 12 13 12Z" fill="#1A2F34"/>
</svg>
