<svg width="14" height="40" viewBox="0 0 14 40" fill="none" xmlns="http://www.w3.org/2000/svg">
<path fill-rule="evenodd" clip-rule="evenodd" d="M4.2632 0.273088C4.51759 0.0868541 4.82143 0 5.11574 0H8.88426C9.17857 0 9.48241 0.0868545 9.7368 0.273088C9.99084 0.459072 10.2435 0.789083 10.2586 1.24116L10.4048 5.62993C10.6946 5.63569 10.992 5.7258 11.2405 5.91231C11.4978 6.10546 11.75 6.44841 11.75 6.91111V13.7926H12.625C12.9242 13.7926 13.2335 13.8824 13.4905 14.0753C13.7478 14.2684 14 14.6114 14 15.0741V37.716C14 38.317 13.588 38.7188 13.1906 38.8788C12.4878 39.1618 10.1448 40 7 40C3.8552 40 1.51217 39.1618 0.809446 38.8788C0.411981 38.7188 0 38.317 0 37.716V15.0741C0 14.6114 0.252193 14.2684 0.509519 14.0753C0.766509 13.8824 1.07581 13.7926 1.375 13.7926H2.25V6.91111C2.25 6.44841 2.50219 6.10546 2.75952 5.91231C3.008 5.7258 3.30538 5.63569 3.59524 5.62993L3.74141 1.24116C3.75647 0.789084 4.00915 0.459073 4.2632 0.273088ZM5.71725 2L5.57109 6.38847C5.55603 6.84054 5.30335 7.17056 5.0493 7.35654C4.81023 7.53156 4.52747 7.61881 4.25 7.62868V14.5111C4.25 14.9738 3.99781 15.3168 3.74048 15.5099C3.48349 15.7028 3.17419 15.7926 2.875 15.7926H2V37.1883C2.8859 37.4942 4.69937 38 7 38C9.30063 38 11.1141 37.4942 12 37.1883V15.7926H11.125C10.8258 15.7926 10.5165 15.7028 10.2595 15.5099C10.0022 15.3168 9.75 14.9738 9.75 14.5111V7.62868C9.47253 7.61881 9.18978 7.53156 8.9507 7.35654C8.69666 7.17056 8.44397 6.84055 8.42891 6.38847L8.28275 2H5.71725Z" fill="#1A2F34"/>
<path d="M7.42857 5C7.19188 5 7 4.55228 7 4C7 3.44772 7.19188 3 7.42857 3H9.57143C9.80812 3 10 3.44772 10 4C10 4.55228 9.80812 5 9.57143 5H7.42857Z" fill="#1A2F34"/>
</svg>
