<svg width="41" height="47" viewBox="0 0 41 47" fill="none" xmlns="http://www.w3.org/2000/svg">
<path fill-rule="evenodd" clip-rule="evenodd" d="M23.6795 23.1668C23.4932 23.0989 23.3701 23.1148 23.2709 23.165C22.6071 23.5014 22.0164 24.1794 21.553 24.974C21.2588 25.4786 21.3966 26.2394 22.0735 26.7864L22.2305 26.9132C22.3928 27.0443 22.5447 27.188 22.6846 27.3428L32.3165 38.002C32.4674 38.1691 32.6638 38.4125 32.7942 38.7345C32.8192 38.7964 32.8447 38.8625 32.8717 38.9327C33.0783 39.4692 33.3781 40.2476 34.3047 41.2521C34.9554 41.9575 36.2568 42.5207 37.5273 41.9564C37.7863 41.8413 38.0315 41.5378 37.9924 40.5911C37.9549 39.6845 37.6555 38.5798 37.326 37.5503C37.1202 36.9074 36.7492 36.5424 36.4001 36.3324C36.2483 36.2411 36.0869 36.1527 35.9049 36.0537L35.8739 36.0369C35.7059 35.9455 35.5197 35.8443 35.3367 35.7363C34.9487 35.5073 34.5117 35.2123 34.1426 34.793L24.3214 23.6369C24.1152 23.4027 23.8816 23.2404 23.6795 23.1668ZM22.3669 21.381C23.7738 20.6681 25.134 21.5333 25.8225 22.3153L35.6437 33.4714C35.8085 33.6586 36.0365 33.827 36.3533 34.0139C36.505 34.1035 36.6627 34.1892 36.8386 34.2849L36.8604 34.2967C37.0391 34.3939 37.2368 34.5018 37.4311 34.6187C38.1523 35.0525 38.8625 35.79 39.2308 36.9406C39.5629 37.9782 39.9411 39.3083 39.9907 40.5085C40.0386 41.6686 39.7804 43.144 38.3392 43.7842C36.0768 44.7891 33.8948 43.7575 32.8346 42.6081C31.645 41.3185 31.2303 40.238 31.0103 39.6644C30.9846 39.5975 30.9615 39.5375 30.9402 39.4848C30.9399 39.484 30.935 39.4722 30.9179 39.4474C30.9002 39.4219 30.8737 39.3884 30.8326 39.3429L21.2007 28.6837C21.1307 28.6063 21.0548 28.5345 20.9736 28.4689L20.8167 28.3421C19.6045 27.3627 18.8961 25.56 19.8253 23.9665C20.3788 23.0174 21.2128 21.9657 22.3669 21.381Z" fill="#1A2F34"/>
<path fill-rule="evenodd" clip-rule="evenodd" d="M3.01296 6.1638L2.48675 7.92465L10.6287 11.0859L10.6709 11.107C15.7556 13.6558 18.2036 17.1508 18.7556 21.1318C18.9632 22.6286 18.9981 24.0485 18.9437 25.289C18.8758 26.839 20.0539 28.192 21.3562 28.2112L22.3799 28.2264C22.9321 28.2345 23.3732 28.6888 23.365 29.241C23.3568 29.7932 22.9026 30.2343 22.3503 30.2261L21.3267 30.211C18.6561 30.1715 16.8395 27.621 16.9456 25.2014C16.9956 24.0624 16.963 22.7654 16.7746 21.4065C16.3301 18.2012 14.3931 15.2222 9.81634 12.9159L1.76287 9.78905C0.790936 9.41169 0.271953 8.35097 0.570488 7.35199L1.09972 5.58105C1.45274 4.39976 2.7881 3.80762 3.90255 4.37246C4.00135 4.42254 4.10094 4.47308 4.20134 4.52404C7.83826 6.36993 12.5347 8.75356 18.8982 8.64992C25.1774 8.54766 28.3417 7.90616 30.5189 6.64558C31.36 6.15864 32.3251 6.37801 32.9468 6.77007C33.5642 7.15946 34.2408 7.9955 33.9394 9.06005C33.669 10.0149 33.0381 10.8639 32.4007 11.5537C31.7524 12.2554 31.0132 12.88 30.4314 13.3646C29.6996 13.974 28.9507 14.8985 28.5204 16.2362C27.9809 17.9136 27.735 19.4207 27.5539 20.6982C27.5311 20.8592 27.509 21.019 27.4872 21.1764C27.4243 21.6315 27.3642 22.066 27.2979 22.4495C27.2093 22.962 27.096 23.474 26.9072 23.9097C26.6876 24.4165 26.0988 24.6493 25.5921 24.4297C25.0853 24.2101 24.8525 23.6213 25.0721 23.1145C25.1621 22.9067 25.2441 22.5891 25.3271 22.109C25.3872 21.7613 25.4405 21.3759 25.5017 20.9333C25.5244 20.7696 25.5481 20.598 25.5737 20.4175C25.7597 19.1054 26.0244 17.4649 26.6165 15.6238C27.1773 13.8802 28.1667 12.6479 29.1514 11.8278C29.7346 11.342 30.3818 10.7917 30.9318 10.1964C31.4742 9.60943 31.8469 9.05702 32 8.56562C31.9805 8.54037 31.9431 8.50159 31.8799 8.46179C31.794 8.40761 31.699 8.37637 31.6208 8.36874C31.5837 8.36512 31.5573 8.36741 31.5412 8.37044C31.5333 8.37192 31.5282 8.37352 31.5252 8.37458C31.5224 8.37562 31.5212 8.37632 31.521 8.37641C28.8666 9.91328 25.2481 10.5468 18.9308 10.6497C12.0651 10.7615 6.98707 8.18222 3.35068 6.33523C3.2367 6.27733 3.12413 6.22015 3.01296 6.1638Z" fill="#1A2F34"/>
</svg>
