<svg width="20" height="40" viewBox="0 0 20 40" fill="none" xmlns="http://www.w3.org/2000/svg">
<path d="M16 13V14H17V13H16ZM4 13H3V14H4V13ZM15 7V13H17V7H15ZM16 12H4V14H16V12ZM5 13V7H3V13H5ZM17 7C17 3.13401 13.866 0 10 0V2C12.7614 2 15 4.23858 15 7H17ZM5 7C5 4.23858 7.23858 2 10 2V0C6.13401 0 3 3.13401 3 7H5Z" fill="#1A2F34"/>
<path d="M15 14V38H17V14H15ZM15 38H5V40H15V38ZM5 38V14H3V38H5ZM5 14H10V12H5V14ZM10 14H15V12H10V14ZM5 38H5H3C3 39.1046 3.89543 40 5 40V38ZM15 38V40C16.1046 40 17 39.1046 17 38H15ZM17 14C17 12.8954 16.1046 12 15 12V14H17ZM5 14V14V12C3.89543 12 3 12.8954 3 14H5Z" fill="#1A2F34"/>
<rect x="3" y="34" width="14" height="2" rx="1" fill="#1A2F34"/>
<rect x="3" y="30" width="14" height="2" rx="1" fill="#1A2F34"/>
<rect x="3" y="16" width="14" height="2" rx="1" fill="#1A2F34"/>
<rect x="3" y="20" width="14" height="2" rx="1" fill="#1A2F34"/>
<rect y="38" width="20" height="2" rx="1" fill="#1A2F34"/>
</svg>
