<svg width="14" height="41" viewBox="0 0 14 41" fill="none" xmlns="http://www.w3.org/2000/svg">
<path fill-rule="evenodd" clip-rule="evenodd" d="M8.2391 2.15597C7.42612 1.94801 6.57388 1.94801 5.7609 2.15597L5.1471 2.31298C3.29533 2.78666 2 4.45505 2 6.36644V9.83613C2 10.2306 2.3198 10.5504 2.71429 10.5504H3.02167C4.35097 10.5504 5.42857 11.628 5.42857 12.9573C5.42857 14.2866 4.35096 15.3642 3.02167 15.3642H2.76675C2.38531 15.3642 2.08284 15.6858 2.10616 16.0665L3.24824 34.709C3.30956 35.71 3.76838 36.6451 4.52263 37.306C5.94049 38.5486 8.05951 38.5486 9.47737 37.306C10.2316 36.6451 10.6904 35.71 10.7518 34.709L11.9046 15.8902C11.9221 15.605 11.6956 15.3642 11.4099 15.3642H11.3212C9.99189 15.3642 8.91429 14.2866 8.91429 12.9573C8.91429 11.628 9.99189 10.5504 11.3212 10.5504H11.4571C11.757 10.5504 12 10.3074 12 10.0076V6.36644C12 4.45505 10.7047 2.78666 8.8529 2.31298L8.2391 2.15597ZM5.26525 0.218359C6.40343 -0.0727862 7.59657 -0.0727862 8.73475 0.218359L9.34854 0.375368C12.0855 1.07548 14 3.54138 14 6.36644V10.0076C14 11.4119 12.8615 12.5504 11.4571 12.5504H11.3212C11.0965 12.5504 10.9143 12.7326 10.9143 12.9573C10.9143 13.182 11.0965 13.3642 11.3212 13.3642H11.4099C12.8483 13.3642 13.9888 14.5768 13.9009 16.0125L12.748 34.8313C12.6541 36.365 11.9511 37.7975 10.7955 38.8102C8.62325 40.7139 5.37675 40.7139 3.20445 38.8102C2.04888 37.7975 1.34594 36.365 1.25198 34.8313L0.109903 16.1888C0.0160971 14.6576 1.23265 13.3642 2.76675 13.3642H3.02167C3.2464 13.3642 3.42857 13.182 3.42857 12.9573C3.42857 12.7326 3.2464 12.5504 3.02167 12.5504H2.71429C1.21523 12.5504 0 11.3352 0 9.83613V6.36644C0 3.54138 1.91452 1.07548 4.65146 0.375368L5.26525 0.218359Z" fill="#1A2F34"/>
</svg>
