<svg width="41" height="33" viewBox="0 0 41 33" fill="none" xmlns="http://www.w3.org/2000/svg">
<path fill-rule="evenodd" clip-rule="evenodd" d="M10.7811 1.03643C14.8823 -0.398448 19.087 -0.115401 22.0001 0.524319C25.0095 1.18519 26.8987 4.18591 26.2541 7.20791C25.6086 10.2343 22.6573 12.1798 19.643 11.5179C17.9952 11.156 15.9898 11.1167 14.4128 11.6684C13.5985 11.9533 13.0192 12.1589 12.5267 12.546C12.0727 12.9029 11.6273 13.4737 11.293 14.6048C11.0961 15.2711 10.9985 16.0916 11.0449 16.8747C11.0922 17.6727 11.2821 18.3244 11.5608 18.7323C12.3458 19.8811 13.4196 20.7218 15.0771 21.4382C16.1079 21.7359 17.1855 21.3428 18.4831 20.5333C18.9157 20.2635 19.3234 19.9806 19.7445 19.6885C19.9644 19.536 20.1879 19.3809 20.4206 19.2238C21.0615 18.7911 21.7579 18.3536 22.4659 18.0864C22.7567 17.9766 23.0428 17.8649 23.3325 17.7517C25.4025 16.9427 27.6548 16.0625 33.1203 15.3458C34.2872 15.1928 35.6845 15.2469 36.9839 15.6669C38.2915 16.0895 39.5588 16.9056 40.3177 18.3098C41.7849 21.0246 40.8112 24.4399 38.1195 25.9378C33.2336 28.6565 28.5417 30.8179 24.252 31.997C20.0525 33.1513 15.4975 33.5704 11.4098 31.8226C8.23761 30.4662 4.94467 28.1502 2.6957 24.8587C0.344137 21.4171 -0.813174 16.9271 0.64395 11.9973C2.4113 6.01797 6.38169 2.57562 10.7811 1.03643ZM21.5711 2.47777C18.8879 1.88851 15.0837 1.64996 11.4415 2.92423C7.60886 4.26515 4.1351 7.24181 2.56192 12.5642C1.29691 16.8441 2.28881 20.7181 4.34703 23.7304C6.33703 26.6428 9.29432 28.7429 12.1961 29.9836C15.6802 31.4733 19.7097 31.1714 23.7219 30.0685C27.7915 28.9499 32.3247 26.8735 37.147 24.1901C38.8693 23.2317 39.5117 21.025 38.5582 19.2607C38.1068 18.4254 37.3284 17.8801 36.3688 17.5699C35.401 17.2571 34.3096 17.207 33.3803 17.3289C28.1492 18.0148 26.0612 18.8316 24.0473 19.6193C23.7571 19.7328 23.4685 19.8457 23.1722 19.9576C22.6998 20.1359 22.169 20.4565 21.5398 20.8814C21.3506 21.0091 21.1491 21.1488 20.9398 21.2938C20.4944 21.6026 20.0138 21.9357 19.5417 22.2302C18.1541 23.0958 16.3829 23.9364 14.4392 23.3348L14.3895 23.3195L14.3417 23.299C12.3942 22.4663 10.9661 21.407 9.90947 19.8606C9.34876 19.04 9.10724 17.985 9.04844 16.993C8.98875 15.9861 9.11036 14.9333 9.37504 14.0379C9.80375 12.5874 10.4517 11.6331 11.2908 10.9736C12.0553 10.3726 12.9226 10.0701 13.6502 9.81628C13.6846 9.8043 13.7186 9.79243 13.7523 9.78064C15.7875 9.06859 18.1931 9.15179 20.072 9.56442C21.9781 9.98301 23.8787 8.75705 24.2981 6.79073C24.7184 4.82002 23.4821 2.89742 21.5711 2.47777Z" fill="#1A2F34"/>
</svg>
