<svg width="31" height="39" viewBox="0 0 31 39" fill="none" xmlns="http://www.w3.org/2000/svg">
<path d="M4 7.78516C2.11863 10.2815 1 13.4079 1 16.8009C1 22.4264 7.86818 30.8239 12.1507 35.5133C13.9693 37.5046 17.0307 37.5046 18.8493 35.5133C23.1318 30.8239 30 22.4264 30 16.8009C30 13.4079 28.8814 10.2815 27 7.78516" stroke="#1A2F34" stroke-width="2"/>
<path d="M28 5.5C28 5.88894 27.8034 6.36562 27.2193 6.90814C26.6338 7.45191 25.732 7.98762 24.5338 8.45834C22.1436 9.39738 18.7732 10 15 10C11.2268 10 7.85645 9.39738 5.46616 8.45834C4.26798 7.98762 3.36618 7.45191 2.78074 6.90814C2.19663 6.36562 2 5.88894 2 5.5C2 5.11106 2.19663 4.63438 2.78074 4.09186C3.36618 3.54809 4.26798 3.01238 5.46616 2.54166C7.85645 1.60262 11.2268 1 15 1C18.7732 1 22.1436 1.60262 24.5338 2.54166C25.732 3.01238 26.6338 3.54809 27.2193 4.09186C27.8034 4.63438 28 5.11106 28 5.5Z" stroke="#1A2F34" stroke-width="2"/>
</svg>
